<svg xmlns="http://www.w3.org/2000/svg" xmlns:xlink="http://www.w3.org/1999/xlink" width="1874.984" height="328.177" viewBox="0 0 1874.984 328.177"><defs><style>.a{fill:none;}.b{clip-path:url(#a);}.c{fill:#1e2234;}.d{fill:#ff6647;}</style><clipPath id="a"><rect class="a" width="1874.984" height="328.177"/></clipPath></defs><g transform="translate(-23 -2569)"><g class="b" transform="translate(23 2569)"><g transform="translate(-23 -2567)"><rect class="c" width="26.165" height="26.176" rx="4.901" transform="translate(440.74 2567)"/><rect class="c" width="26.165" height="26.176" rx="4.901" transform="translate(500.367 2567)"/><rect class="c" width="26.166" height="26.176" rx="4.901" transform="translate(679.254 2567)"/><rect class="c" width="26.165" height="26.176" rx="4.901" transform="translate(738.881 2567)"/><rect class="c" width="26.165" height="26.176" rx="4.901" transform="translate(798.51 2567)"/><rect class="c" width="26.165" height="26.176" rx="4.901" transform="translate(858.139 2567)"/><rect class="c" width="26.165" height="26.176" rx="4.901" transform="translate(917.766 2567)"/><rect class="c" width="26.165" height="26.176" rx="4.901" transform="translate(977.395 2567)"/><rect class="c" width="26.165" height="26.176" rx="4.901" transform="translate(1037.023 2567)"/><rect class="c" width="26.166" height="26.176" rx="4.901" transform="translate(1096.65 2567)"/><rect class="c" width="26.166" height="26.176" rx="4.901" transform="translate(1156.279 2567)"/><rect class="c" width="26.165" height="26.176" rx="4.901" transform="translate(559.973 2567)"/><rect class="c" width="26.165" height="26.176" rx="4.901" transform="translate(619.6 2567)"/><rect class="c" width="26.165" height="26.176" rx="4.901" transform="translate(381.063 2567)"/><rect class="c" width="26.165" height="26.176" rx="4.901" transform="translate(321.387 2567)"/><rect class="c" width="26.165" height="26.176" rx="4.901" transform="translate(261.709 2567)"/><rect class="c" width="26.165" height="26.176" rx="4.901" transform="translate(202.031 2567)"/><rect class="c" width="26.165" height="26.176" rx="4.901" transform="translate(142.355 2567)"/><rect class="c" width="26.165" height="26.176" rx="4.901" transform="translate(82.678 2567)"/><rect class="c" width="26.165" height="26.176" rx="4.901" transform="translate(23 2567)"/><rect class="c" width="26.166" height="26.176" rx="4.901" transform="translate(1215.908 2567)"/><rect class="c" width="26.166" height="26.176" rx="4.901" transform="translate(1275.535 2567)"/><rect class="c" width="26.166" height="26.176" rx="4.901" transform="translate(1335.164 2567)"/><rect class="c" width="26.166" height="26.176" rx="4.901" transform="translate(1394.793 2567)"/><rect class="c" width="26.166" height="26.176" rx="4.901" transform="translate(1454.42 2567)"/><rect class="c" width="26.166" height="26.176" rx="4.901" transform="translate(1514.049 2567)"/><rect class="c" width="26.166" height="26.176" rx="4.901" transform="translate(1573.678 2567)"/><rect class="c" width="26.166" height="26.176" rx="4.901" transform="translate(1633.305 2567)"/><rect class="c" width="26.166" height="26.176" rx="4.901" transform="translate(1692.934 2567)"/><rect class="c" width="26.166" height="26.176" rx="4.901" transform="translate(1752.563 2567)"/><rect class="c" width="26.166" height="26.176" rx="4.901" transform="translate(1812.191 2567)"/><rect class="c" width="26.166" height="26.176" rx="4.901" transform="translate(1871.818 2567)"/></g><g transform="translate(-23 -2507)"><rect class="c" width="26.165" height="26.176" rx="4.901" transform="translate(440.74 2567)"/><rect class="c" width="26.165" height="26.176" rx="4.901" transform="translate(500.367 2567)"/><rect class="c" width="26.166" height="26.176" rx="4.901" transform="translate(679.254 2567)"/><rect class="c" width="26.165" height="26.176" rx="4.901" transform="translate(738.881 2567)"/><rect class="c" width="26.165" height="26.176" rx="4.901" transform="translate(798.51 2567)"/><rect class="c" width="26.165" height="26.176" rx="4.901" transform="translate(858.139 2567)"/><rect class="c" width="26.165" height="26.176" rx="4.901" transform="translate(917.766 2567)"/><rect class="c" width="26.165" height="26.176" rx="4.901" transform="translate(977.395 2567)"/><rect class="c" width="26.165" height="26.176" rx="4.901" transform="translate(1037.023 2567)"/><rect class="c" width="26.166" height="26.176" rx="4.901" transform="translate(1096.65 2567)"/><rect class="c" width="26.166" height="26.176" rx="4.901" transform="translate(1156.279 2567)"/><rect class="c" width="26.165" height="26.176" rx="4.901" transform="translate(559.973 2567)"/><rect class="c" width="26.165" height="26.176" rx="4.901" transform="translate(619.6 2567)"/><rect class="c" width="26.165" height="26.176" rx="4.901" transform="translate(381.063 2567)"/><rect class="c" width="26.165" height="26.176" rx="4.901" transform="translate(321.387 2567)"/><rect class="c" width="26.165" height="26.176" rx="4.901" transform="translate(261.709 2567)"/><rect class="c" width="26.165" height="26.176" rx="4.901" transform="translate(202.031 2567)"/><rect class="c" width="26.165" height="26.176" rx="4.901" transform="translate(142.355 2567)"/><rect class="c" width="26.165" height="26.176" rx="4.901" transform="translate(82.678 2567)"/><rect class="c" width="26.165" height="26.176" rx="4.901" transform="translate(23 2567)"/><rect class="c" width="26.166" height="26.176" rx="4.901" transform="translate(1215.908 2567)"/><rect class="c" width="26.166" height="26.176" rx="4.901" transform="translate(1275.535 2567)"/><rect class="c" width="26.166" height="26.176" rx="4.901" transform="translate(1335.164 2567)"/><rect class="c" width="26.166" height="26.176" rx="4.901" transform="translate(1394.793 2567)"/><rect class="c" width="26.166" height="26.176" rx="4.901" transform="translate(1454.42 2567)"/><rect class="c" width="26.166" height="26.176" rx="4.901" transform="translate(1514.049 2567)"/><rect class="c" width="26.166" height="26.176" rx="4.901" transform="translate(1573.678 2567)"/><rect class="c" width="26.166" height="26.176" rx="4.901" transform="translate(1633.305 2567)"/><rect class="c" width="26.166" height="26.176" rx="4.901" transform="translate(1692.934 2567)"/><rect class="c" width="26.166" height="26.176" rx="4.901" transform="translate(1752.563 2567)"/><rect class="c" width="26.166" height="26.176" rx="4.901" transform="translate(1812.191 2567)"/><rect class="c" width="26.166" height="26.176" rx="4.901" transform="translate(1871.818 2567)"/></g><g transform="translate(-23 -2447)"><rect class="c" width="26.165" height="26.176" rx="4.901" transform="translate(440.74 2567)"/><rect class="c" width="26.165" height="26.176" rx="4.901" transform="translate(500.367 2567)"/><rect class="c" width="26.166" height="26.176" rx="4.901" transform="translate(679.254 2567)"/><rect class="c" width="26.165" height="26.176" rx="4.901" transform="translate(738.881 2567)"/><rect class="c" width="26.165" height="26.176" rx="4.901" transform="translate(798.51 2567)"/><rect class="c" width="26.165" height="26.176" rx="4.901" transform="translate(858.139 2567)"/><rect class="c" width="26.165" height="26.176" rx="4.901" transform="translate(917.766 2567)"/><rect class="c" width="26.165" height="26.176" rx="4.901" transform="translate(977.395 2567)"/><rect class="c" width="26.165" height="26.176" rx="4.901" transform="translate(1037.023 2567)"/><rect class="c" width="26.166" height="26.176" rx="4.901" transform="translate(1096.65 2567)"/><rect class="c" width="26.166" height="26.176" rx="4.901" transform="translate(1156.279 2567)"/><rect class="c" width="26.165" height="26.176" rx="4.901" transform="translate(559.973 2567)"/><rect class="c" width="26.165" height="26.176" rx="4.901" transform="translate(619.6 2567)"/><rect class="c" width="26.165" height="26.176" rx="4.901" transform="translate(381.063 2567)"/><rect class="c" width="26.165" height="26.176" rx="4.901" transform="translate(321.387 2567)"/><rect class="c" width="26.165" height="26.176" rx="4.901" transform="translate(261.709 2567)"/><rect class="c" width="26.165" height="26.176" rx="4.901" transform="translate(202.031 2567)"/><rect class="c" width="26.165" height="26.176" rx="4.901" transform="translate(142.355 2567)"/><rect class="c" width="26.165" height="26.176" rx="4.901" transform="translate(82.678 2567)"/><rect class="c" width="26.165" height="26.176" rx="4.901" transform="translate(23 2567)"/><rect class="c" width="26.166" height="26.176" rx="4.901" transform="translate(1215.908 2567)"/><rect class="c" width="26.166" height="26.176" rx="4.901" transform="translate(1275.535 2567)"/><rect class="c" width="26.166" height="26.176" rx="4.901" transform="translate(1335.164 2567)"/><rect class="c" width="26.166" height="26.176" rx="4.901" transform="translate(1394.793 2567)"/><rect class="c" width="26.166" height="26.176" rx="4.901" transform="translate(1454.42 2567)"/><rect class="c" width="26.166" height="26.176" rx="4.901" transform="translate(1514.049 2567)"/><rect class="c" width="26.166" height="26.176" rx="4.901" transform="translate(1573.678 2567)"/><rect class="c" width="26.166" height="26.176" rx="4.901" transform="translate(1633.305 2567)"/><rect class="c" width="26.166" height="26.176" rx="4.901" transform="translate(1692.934 2567)"/><rect class="c" width="26.166" height="26.176" rx="4.901" transform="translate(1752.563 2567)"/><rect class="c" width="26.166" height="26.176" rx="4.901" transform="translate(1812.191 2567)"/><rect class="c" width="26.166" height="26.176" rx="4.901" transform="translate(1871.818 2567)"/></g><g transform="translate(-23 -2387)"><rect class="c" width="26.165" height="26.176" rx="4.901" transform="translate(440.74 2567)"/><rect class="c" width="26.165" height="26.176" rx="4.901" transform="translate(500.367 2567)"/><rect class="c" width="26.166" height="26.176" rx="4.901" transform="translate(679.254 2567)"/><rect class="c" width="26.165" height="26.176" rx="4.901" transform="translate(738.881 2567)"/><rect class="c" width="26.165" height="26.176" rx="4.901" transform="translate(798.51 2567)"/><rect class="c" width="26.165" height="26.176" rx="4.901" transform="translate(858.139 2567)"/><rect class="c" width="26.165" height="26.176" rx="4.901" transform="translate(917.766 2567)"/><rect class="c" width="26.165" height="26.176" rx="4.901" transform="translate(977.395 2567)"/><rect class="c" width="26.165" height="26.176" rx="4.901" transform="translate(1037.023 2567)"/><rect class="c" width="26.166" height="26.176" rx="4.901" transform="translate(1096.65 2567)"/><rect class="c" width="26.166" height="26.176" rx="4.901" transform="translate(1156.279 2567)"/><rect class="c" width="26.165" height="26.176" rx="4.901" transform="translate(559.973 2567)"/><rect class="c" width="26.165" height="26.176" rx="4.901" transform="translate(619.6 2567)"/><rect class="c" width="26.165" height="26.176" rx="4.901" transform="translate(381.063 2567)"/><rect class="c" width="26.165" height="26.176" rx="4.901" transform="translate(321.387 2567)"/><rect class="c" width="26.165" height="26.176" rx="4.901" transform="translate(261.709 2567)"/><rect class="c" width="26.165" height="26.176" rx="4.901" transform="translate(202.031 2567)"/><rect class="c" width="26.165" height="26.176" rx="4.901" transform="translate(142.355 2567)"/><rect class="c" width="26.165" height="26.176" rx="4.901" transform="translate(82.678 2567)"/><rect class="c" width="26.165" height="26.176" rx="4.901" transform="translate(23 2567)"/><rect class="c" width="26.166" height="26.176" rx="4.901" transform="translate(1215.908 2567)"/><rect class="c" width="26.166" height="26.176" rx="4.901" transform="translate(1275.535 2567)"/><rect class="c" width="26.166" height="26.176" rx="4.901" transform="translate(1335.164 2567)"/><rect class="c" width="26.166" height="26.176" rx="4.901" transform="translate(1394.793 2567)"/><rect class="c" width="26.166" height="26.176" rx="4.901" transform="translate(1454.42 2567)"/><rect class="c" width="26.166" height="26.176" rx="4.901" transform="translate(1514.049 2567)"/><rect class="c" width="26.166" height="26.176" rx="4.901" transform="translate(1573.678 2567)"/><rect class="c" width="26.166" height="26.176" rx="4.901" transform="translate(1633.305 2567)"/><rect class="c" width="26.166" height="26.176" rx="4.901" transform="translate(1692.934 2567)"/><rect class="c" width="26.166" height="26.176" rx="4.901" transform="translate(1752.563 2567)"/><rect class="c" width="26.166" height="26.176" rx="4.901" transform="translate(1812.191 2567)"/><rect class="c" width="26.166" height="26.176" rx="4.901" transform="translate(1871.818 2567)"/></g><g transform="translate(-23 -2327)"><rect class="c" width="26.165" height="26.176" rx="4.901" transform="translate(440.74 2567)"/><rect class="c" width="26.165" height="26.176" rx="4.901" transform="translate(500.367 2567)"/><rect class="c" width="26.166" height="26.176" rx="4.901" transform="translate(679.254 2567)"/><rect class="c" width="26.165" height="26.176" rx="4.901" transform="translate(738.881 2567)"/><rect class="c" width="26.165" height="26.176" rx="4.901" transform="translate(798.51 2567)"/><rect class="c" width="26.165" height="26.176" rx="4.901" transform="translate(858.139 2567)"/><rect class="c" width="26.165" height="26.176" rx="4.901" transform="translate(917.766 2567)"/><rect class="c" width="26.165" height="26.176" rx="4.901" transform="translate(977.395 2567)"/><rect class="c" width="26.165" height="26.176" rx="4.901" transform="translate(1037.023 2567)"/><rect class="c" width="26.166" height="26.176" rx="4.901" transform="translate(1096.65 2567)"/><rect class="c" width="26.166" height="26.176" rx="4.901" transform="translate(1156.279 2567)"/><rect class="c" width="26.165" height="26.176" rx="4.901" transform="translate(559.973 2567)"/><rect class="c" width="26.165" height="26.176" rx="4.901" transform="translate(619.6 2567)"/><rect class="c" width="26.165" height="26.176" rx="4.901" transform="translate(381.063 2567)"/><rect class="c" width="26.165" height="26.176" rx="4.901" transform="translate(321.387 2567)"/><rect class="c" width="26.165" height="26.176" rx="4.901" transform="translate(261.709 2567)"/><rect class="c" width="26.165" height="26.176" rx="4.901" transform="translate(202.031 2567)"/><rect class="c" width="26.165" height="26.176" rx="4.901" transform="translate(142.355 2567)"/><rect class="c" width="26.165" height="26.176" rx="4.901" transform="translate(82.678 2567)"/><rect class="c" width="26.165" height="26.176" rx="4.901" transform="translate(23 2567)"/><rect class="c" width="26.166" height="26.176" rx="4.901" transform="translate(1215.908 2567)"/><rect class="c" width="26.166" height="26.176" rx="4.901" transform="translate(1275.535 2567)"/><rect class="c" width="26.166" height="26.176" rx="4.901" transform="translate(1335.164 2567)"/><rect class="c" width="26.166" height="26.176" rx="4.901" transform="translate(1394.793 2567)"/><rect class="c" width="26.166" height="26.176" rx="4.901" transform="translate(1454.42 2567)"/><rect class="c" width="26.166" height="26.176" rx="4.901" transform="translate(1514.049 2567)"/><rect class="c" width="26.166" height="26.176" rx="4.901" transform="translate(1573.678 2567)"/><rect class="c" width="26.166" height="26.176" rx="4.901" transform="translate(1633.305 2567)"/><rect class="c" width="26.166" height="26.176" rx="4.901" transform="translate(1692.934 2567)"/><rect class="c" width="26.166" height="26.176" rx="4.901" transform="translate(1752.563 2567)"/><rect class="c" width="26.166" height="26.176" rx="4.901" transform="translate(1812.191 2567)"/><rect class="c" width="26.166" height="26.176" rx="4.901" transform="translate(1871.818 2567)"/></g><g transform="translate(-23 -2267)"><rect class="c" width="26.165" height="26.176" rx="4.901" transform="translate(440.74 2567)"/><rect class="c" width="26.165" height="26.176" rx="4.901" transform="translate(500.367 2567)"/><rect class="c" width="26.166" height="26.176" rx="4.901" transform="translate(679.254 2567)"/><rect class="c" width="26.165" height="26.176" rx="4.901" transform="translate(738.881 2567)"/><rect class="c" width="26.165" height="26.176" rx="4.901" transform="translate(798.51 2567)"/><rect class="c" width="26.165" height="26.176" rx="4.901" transform="translate(858.139 2567)"/><rect class="c" width="26.165" height="26.176" rx="4.901" transform="translate(917.766 2567)"/><rect class="c" width="26.165" height="26.176" rx="4.901" transform="translate(977.395 2567)"/><rect class="c" width="26.165" height="26.176" rx="4.901" transform="translate(1037.023 2567)"/><rect class="c" width="26.166" height="26.176" rx="4.901" transform="translate(1096.65 2567)"/><rect class="c" width="26.166" height="26.176" rx="4.901" transform="translate(1156.279 2567)"/><rect class="c" width="26.165" height="26.176" rx="4.901" transform="translate(559.973 2567)"/><rect class="c" width="26.165" height="26.176" rx="4.901" transform="translate(619.6 2567)"/><rect class="c" width="26.165" height="26.176" rx="4.901" transform="translate(381.063 2567)"/><rect class="c" width="26.165" height="26.176" rx="4.901" transform="translate(321.387 2567)"/><rect class="c" width="26.165" height="26.176" rx="4.901" transform="translate(261.709 2567)"/><rect class="c" width="26.165" height="26.176" rx="4.901" transform="translate(202.031 2567)"/><rect class="c" width="26.165" height="26.176" rx="4.901" transform="translate(142.355 2567)"/><rect class="c" width="26.165" height="26.176" rx="4.901" transform="translate(82.678 2567)"/><rect class="c" width="26.165" height="26.176" rx="4.901" transform="translate(23 2567)"/><rect class="c" width="26.166" height="26.176" rx="4.901" transform="translate(1215.908 2567)"/><rect class="c" width="26.166" height="26.176" rx="4.901" transform="translate(1275.535 2567)"/><rect class="c" width="26.166" height="26.176" rx="4.901" transform="translate(1335.164 2567)"/><rect class="c" width="26.166" height="26.176" rx="4.901" transform="translate(1394.793 2567)"/><rect class="c" width="26.166" height="26.176" rx="4.901" transform="translate(1454.42 2567)"/><rect class="c" width="26.166" height="26.176" rx="4.901" transform="translate(1514.049 2567)"/><rect class="c" width="26.166" height="26.176" rx="4.901" transform="translate(1573.678 2567)"/><rect class="c" width="26.166" height="26.176" rx="4.901" transform="translate(1633.305 2567)"/><rect class="c" width="26.166" height="26.176" rx="4.901" transform="translate(1692.934 2567)"/><rect class="c" width="26.166" height="26.176" rx="4.901" transform="translate(1752.563 2567)"/><rect class="c" width="26.166" height="26.176" rx="4.901" transform="translate(1812.191 2567)"/><rect class="c" width="26.166" height="26.176" rx="4.901" transform="translate(1871.818 2567)"/></g></g><g transform="translate(1 64)"><path class="d" d="M2325.262,4495.738h-12.981l-.019-.018q-.681-.125-1.342-.308a14.329,14.329,0,0,1-10.3-13.88v-10.583a4.913,4.913,0,0,0-4.914-4.913h-10.989a14.1,14.1,0,0,1-9.472-3.521q-.256-.231-.5-.475a14.141,14.141,0,0,1-4.077-10.081V4441.4a4.914,4.914,0,0,0-4.914-4.913h-16.405a4.913,4.913,0,0,0-4.914,4.913v16.417a4.914,4.914,0,0,0,4.914,4.914h10.735a13.822,13.822,0,0,1,6.319,1.448,15.249,15.249,0,0,1,5.666,5.02,14.026,14.026,0,0,1,2.321,7.872v10.291a4.914,4.914,0,0,0,4.914,4.914h10.376a13.8,13.8,0,0,1,6.322,1.45,15.255,15.255,0,0,1,5.586,4.919,13.965,13.965,0,0,1,2.359,7.929v10.49a4.914,4.914,0,0,0,4.914,4.914h16.406a4.914,4.914,0,0,0,4.913-4.914v-16.416A4.914,4.914,0,0,0,2325.262,4495.738Z" transform="translate(-671.398 -1810.49)"/><rect class="d" width="26.233" height="26.244" rx="4.913" transform="translate(1632.545 2626)"/><rect class="d" width="26.233" height="26.244" rx="4.913" transform="translate(1573.031 2685.248)"/></g></g></svg>