<svg xmlns="http://www.w3.org/2000/svg" xmlns:xlink="http://www.w3.org/1999/xlink" width="1920" height="446" viewBox="0 0 1920 446"><defs><style>.a{fill:#ff6647;}.b{opacity:0.498;clip-path:url(#a);}</style><clipPath id="a"><rect class="a" width="1920" height="446" transform="translate(0 4362)"/></clipPath></defs><g class="b" transform="translate(0 -4362)"><path class="a" d="M2960.38,4933.68c-29.42,4.08-59.03,6.43-88.74,5.9-60.52-1.07-117.34-16.29-169.27-47.45-42.54-25.53-81.19-57.46-125.52-79.98-.33-.17-.65-.34-.98-.5q-1.98-1-3.99-1.98c-80.6-39.28-164.07-23.93-245.15,1.98-.52.17-1.04.33-1.55.5-8.72,2.8-17.41,5.72-26.06,8.7-49.85,17.19-99.57,36.3-151.67,45.6-25.09,4.48-50.7,6.52-76.14,4.31-30.5-2.64-60.68-10.75-90.84-15.86-113.54-19.27-238.24-27.28-346.69,19.09-46.85,20.04-89.25,49.02-136.01,69.23-53.53,23.14-106.93,26.74-161.02,2.92-48.75-21.47-90.91-55.73-141.04-74.36-46.72-17.36-97.05-19.51-146.1-13.1q-4.125.54-8.23,1.15c-.17.02-.33.04-.5.07v1.5c.17-.03.33-.05.5-.07a403.524,403.524,0,0,1,50.58-4.44c58.46-1.28,110.56,15.83,160.76,44.77,42.67,24.6,85.03,53.99,134.79,61.6,46.37,7.1,91.12-8.22,132.19-28.52,45.68-22.58,88.62-51.2,137-68,60.66-21.07,126.9-27.07,190.74-24.91,64.01,2.16,127.35,12.89,190.08,25.25,46.41,9.15,91.44,6.27,137.31-4.86,51.46-12.48,101.79-33.34,152.91-50.07.51-.17,1.02-.34,1.54-.5,45.71-14.89,92.07-26.37,140.43-25.51,36.31.64,69.7,10.44,101.26,25.51.35.16.7.33,1.05.5a421.115,421.115,0,0,1,46.44,26.45c43.19,28.06,84.11,60.72,132.35,79.96,66.9,26.68,138.76,26.74,209.57,16.84.17-.02.34-.05.5-.07v-1.72C2960.71,4933.64,2960.55,4933.66,2960.38,4933.68Zm0,33.71a568.5,568.5,0,0,1-82.96,5.44c-61.58-.81-119.2-16.05-172.78-46.32-45.88-25.93-88.26-58.3-136.75-79.48-94.01-41.05-193.68-18.03-287.21,11.97-52.34,16.79-104.21,35.74-158.03,47.34-58.01,12.51-113.4,11.19-171.73,1.53-110.75-18.33-226.61-54.12-337.05-14.14-91.94,33.28-176.03,125.7-281.39,100.38-52.47-12.61-95.28-47.8-142.28-72.37-45.41-23.74-94.73-33.51-145.82-30.87-1,.05-2,.11-3,.17l-.5.03v1.52l.5-.03a318.2,318.2,0,0,1,47.92.6c58.37,5.32,105.67,32.57,154.78,62.13,40.81,24.56,84.33,47.21,133.36,44.52,43.03-2.36,82.56-22.22,119.37-43.1,46.36-26.3,91.43-56.26,143.71-69.46,61.53-15.53,125.11-10.97,187.05-.6,57.96,9.7,115.23,23.83,173.79,29.7,50.88,5.09,101.18-2.51,150.38-15.42,101.83-26.72,201.49-76.73,308.8-75.27,56.08.76,106.28,19.49,154.12,47.7,45.38,26.75,88.2,58.78,137.55,78.17,66.72,26.2,137.88,26.92,208.17,17.49.17-.02.34-.04.5-.07v-1.63C2960.71,4967.35,2960.55,4967.37,2960.38,4967.39Zm0,33.43c-31.32,4.03-62.86,5.98-94.43,4.52-63.26-2.91-120.14-22.61-175.01-53.3-46.39-25.94-91.13-56.01-141.82-73.18-96.99-32.86-198.27-4.03-291.55,27.22-52.02,17.42-103.77,36.34-157.42,48.23-55.05,12.2-109.08,13.95-164.53,3.42-109.9-20.87-220.17-72.39-333.76-45.25-45.66,10.92-85.68,35.8-125.11,60.31-41,25.49-84.35,53.64-133.45,59.18-57.83,6.52-106.75-23.96-153.8-53.18-44.59-27.69-89.35-49.07-142.45-53.03q-2.835-.209-5.67-.37l-.5-.03v1.68l.5.03a258.556,258.556,0,0,1,57.98,9.53c53.8,15.51,96.51,52.28,145.96,76.81,40.37,20.03,83.2,26.87,126.91,14.16,42.55-12.37,80.02-37.78,117.34-60.84,46.26-28.59,92.93-52.91,147.85-58.81,60.97-6.54,121.51,7.03,180.14,22.41,54,14.16,108.43,31.17,164.36,35.64,49.52,3.96,99.04-4.35,146.78-17.07,102.32-27.26,200.86-76.75,307.95-82.72,56.54-3.16,109.67,9.47,160.14,34.79,49.14,24.66,94.32,56.86,145,78.52,69.97,29.9,144.66,32.06,218.59,22.7.17-.02.34-.04.5-.07v-1.36Zm0,33.39c-32.64,4.23-65.67,6-99.37,3.81-62.88-4.08-119.27-25.18-174.51-54.34-47.31-24.97-93.78-53.02-145.53-67.96-99.01-28.57-200.65,1.37-294.72,33.71-101.39,34.87-208.08,78.84-317.46,61.13-110.03-17.82-212.09-83.88-326.08-76.9-47.95,2.94-90.42,21.23-130.88,46.06-15.54,9.54-30.73,19.84-46.04,29.94-13.75,9.09-27.59,18.01-41.88,26.1a316.2,316.2,0,0,1-37.67,18.43c-53.37,21.54-104.49,13.28-153.84-14.54-45.94-25.89-87.16-59.36-139.26-72.44q-5.88-1.47-11.76-2.65a3.943,3.943,0,0,0-.5-.11v2.28c.17.03.34.07.5.1a247.261,247.261,0,0,1,69.9,25.36c44.7,24.42,85.1,59.52,135.38,72.25,45.73,11.57,87.35-.73,126.65-21.2,4.73-2.45,9.42-5.04,14.09-7.71q3.09-1.755,6.17-3.59c11.82-7,23.45-14.5,34.94-22.06q5.115-3.375,10.19-6.74c7.02-4.65,14-9.27,20.94-13.75,8.33-5.39,16.61-10.59,24.86-15.4,50.06-29.21,103.3-43.41,161.5-37.92,58.4,5.52,113.87,26.64,169.02,45.27,51.13,17.27,103.57,33.69,157.98,34.76,48.64.97,96.79-8.66,143.38-21.91,101.58-28.91,199.37-77.28,305.66-86.99,58.39-5.33,114.37,4.62,167.85,28.52,50.6,22.61,97.23,53.19,148.26,74.89,71.65,30.47,147.15,33.85,222.23,24.98a4.15,4.15,0,0,0,.5-.06v-1.38Zm0,32c-37.75,4.56-75.91,5.77-114.7,1.51-63.87-7.02-120.76-32.3-177.63-60.72-49.64-24.8-99.98-50.46-155.17-60.11-99.21-17.33-197.67,15.38-290.04,48.28-99.07,35.28-203.33,77.61-310.66,64.64-111.05-13.41-204.72-87.67-316.06-99.29-47.3-4.94-92.53,5.22-134.23,27.64q-1.125.6-2.25,1.23c-10.85,5.92-21.37,12.38-31.7,19.13q-9.03,5.88-17.91,12.02-8.25,5.655-16.46,11.4c-8.45,5.89-16.9,11.78-25.45,17.52-8.76,5.9-17.62,11.64-26.67,17.08-.11.07-.22.13-.33.2-44.75,26.82-94.39,42.71-145.89,25.78-51.84-17.05-92.21-56.66-141.38-79.2-4.14-1.9-8.29-3.65-12.47-5.28-.16-.06-.33-.12-.5-.19v1.86c.17.07.34.14.5.2,24.78,9.8,47.26,24.12,69.5,38.64,40.09,26.17,82.18,54.01,132,53.01,28.56-.57,54.68-8.97,79.49-21.36q8.04-4.02,15.91-8.55c33.08-18.97,64.17-43.81,96.1-64.8q4.725-3.12,9.49-6.11a317.758,317.758,0,0,1,36.32-19.95c111.73-51.21,221.29,11.88,325.21,51.66,47.69,18.26,96.52,31.46,147.9,31.27,47.6-.17,94.62-9.92,140.18-23.09,101.57-29.36,198.49-77.3,303.85-92.6,55.63-8.08,111.32-4.78,164.72,13.37,55.46,18.85,105.89,49.36,159.25,73.06,53.31,23.67,108.77,36.68,167.21,37.3a569.419,569.419,0,0,0,71.87-4.01c.17-.02.34-.04.5-.05v-1.55A4.15,4.15,0,0,1,2960.38,5066.21Zm0,30.04c-42.38,4.78-85.14,5.32-128.4-1.11-118.35-17.6-215.28-100.28-334.24-114.69-101.9-12.35-201.75,23.33-295.88,57.82-99.19,36.35-203.43,78.54-311.23,68.12-111.55-10.79-199.53-87.6-305.74-115.28-44.27-11.53-90.13-11.14-132.85,6.15q-4.125,1.666-8.17,3.48c-1.73.78-3.46,1.57-5.17,2.4q-5.445,2.55-10.76,5.38c-.72.37-1.44.75-2.15,1.14a432.52,432.52,0,0,0-41.88,26.1q-5.325,3.691-10.6,7.48c-10.82,7.75-21.49,15.7-32.19,23.5-1.77,1.29-3.55,2.58-5.32,3.86q-6.63,4.8-13.43,9.6c-35.12,24.7-73.65,47.88-117.28,50.19-57.25,3.04-102.83-33.36-148.19-62.84q-7.71-5.01-15.52-9.5c-.17-.09-.33-.19-.5-.28v3.01a5.182,5.182,0,0,1,.5.3c23.72,14.16,46.49,30.35,71.07,44.64,39.44,22.93,82.32,33.31,126.91,20.18,36.75-10.82,68.24-31.75,98.92-54.25,9.98-7.33,19.87-14.82,29.84-22.19,6.38-4.72,12.8-9.39,19.28-13.93q3.09-1.755,6.17-3.59,8.22-5.73,16.46-11.4c6.06-3.76,12.21-7.33,18.48-10.66q2.91-1.56,5.87-3.03a218.743,218.743,0,0,1,41.52-16.03c111.68-29.92,215.15,51.2,313.24,90.91,45.52,18.42,92.79,28.75,142.02,27.73,48.6-1.01,96.45-11.39,142.87-25.22,102.22-30.44,199.46-78.51,304.99-97.46,54.02-9.71,109.33-10.27,162.68,3.73,59.89,15.72,114.49,45.79,171.04,70.17,54.62,23.54,110.76,38.71,170.46,40.47a555.664,555.664,0,0,0,77.18-3.38l.5-.06v-1.51C2960.72,5096.22,2960.55,5096.24,2960.38,5096.25Zm0,20.58a501,501,0,0,1-92.11-2.9c-63.58-8.13-122.57-30.87-181.53-54.95-51.01-20.84-102.8-42.04-157.75-49.61-116.87-16.1-229.5,33.37-337.1,71.56-117.91,41.84-242.1,73.09-364.32,29.54-92.07-32.81-177.47-97.75-277.66-103.51-91.84-5.28-159.31,56.39-232.45,101.7-38.9,24.1-82.49,43.79-129.35,38.6-53.81-5.95-97.28-41.59-144.94-63.77-.6-.28-1.19-.55-1.79-.82-.17-.08-.33-.16-.5-.23v1.86c.17.07.33.15.5.22,19.41,8.98,37.82,20.01,56.5,30.42,38.4,21.39,78.87,39.04,123.82,33.68,85.82-10.23,148.76-82.99,223.88-118.65,47.79-22.68,98.78-26.8,150.08-14.39,50.33,12.18,96.96,36.05,143.39,58.31,45.14,21.63,91.13,42.98,140.49,52.97,55.94,11.32,113.48,8.36,169.22-2.65,119.27-23.55,228.01-82.46,346.94-106.88,62.8-12.89,125.23-12.34,187.05,5.31,55.37,15.81,107.46,40.85,161.31,60.9,54.98,20.48,111.64,33.6,170.41,35.7,15.33.55,30.64.39,45.91-.38.17,0,.33-.01.5-.02v-2.04Zm0,22.93a520.538,520.538,0,0,1-83.34-7.91c-112.14-19.98-213.53-80.89-327.01-94.11-115.35-13.43-224.39,36.76-330.46,74.3-115.55,40.89-238.09,67.03-358.14,28.59-94.27-30.17-178.75-92.46-278.25-106.02-43-5.86-85.24.48-124.93,17.79-39.97,17.43-75.79,42.7-112.72,65.55-39.61,24.51-82.36,47.67-129.92,49.84-53.59,2.45-99.89-25.74-147.62-45.61q-13.14-5.46-26.61-9.55a4.74,4.74,0,0,0-.5-.15v1.41c.17.05.33.1.5.16q4.71,1.485,9.36,3.17c24.81,8.95,48.25,21.17,72.47,31.54,39.66,16.98,80.81,26.13,123.58,16.32,85.66-19.65,148.79-89.64,230.68-118.62,103.03-36.46,202.62,17.26,294.45,59.65,46.07,21.26,93.01,40.72,143.25,49.48,53.59,9.35,108.42,7.32,161.84-2.17,117.37-20.84,223.41-78.62,339.15-104.96,60.45-13.75,120.63-14.79,181.11-.68,55.99,13.05,109.32,35.14,163.5,53.98,53.21,18.5,107.65,33.15,163.95,38.01q17.835,1.545,35.66,1.75a4.17,4.17,0,0,0,.5.01v-1.77A4.066,4.066,0,0,1,2960.38,5139.76Zm0,21.64a550.866,550.866,0,0,1-88.75-15.19c-108.39-27.56-212.6-81.21-326.31-83.26-110.49-1.99-212.35,50.08-314.28,85.55-113.94,39.66-233.11,55.23-349.84,17.23-95.36-31.05-181.84-91.63-282.56-105.64a246.73,246.73,0,0,0-124.2,14.58c-40.67,15.76-77.55,39.49-115.09,61.34-39.42,22.94-81.5,45.66-127.61,50.56-54.05,5.75-102.22-16.63-152.39-32.6a322.917,322.917,0,0,0-37.97-9.53c-.16-.04-.33-.07-.5-.1v1.3c.17.03.33.06.5.1q11.3,2.2,22.43,5.29c24.47,6.8,48.04,16.36,72.18,24.18,42.13,13.65,84.53,18.64,127.68,6.69,86.16-23.87,152.56-91.65,239.06-114.96,103.39-27.85,202.65,25.86,294.32,66.98,45.76,20.53,92.33,38.97,141.81,48.32,51.97,9.82,105.31,10.04,157.59,2.46,111.22-16.15,210.92-68.99,317.81-100.24,58.45-17.1,117.9-24.5,178.5-16.02,57.7,8.06,113.22,26.79,168.27,45.25,54.14,18.17,108.49,36.61,165.08,45.52q17.115,2.7,34.27,4.06c.17.01.33.03.5.04v-1.87C2960.71,5161.43,2960.54,5161.41,2960.38,5161.4Zm0,16.64a585.918,585.918,0,0,1-82.85-19.92c-105.2-32.87-210.13-78.19-322.64-73.52-107.75,4.47-205.08,58.12-304.84,93.19-55.78,19.61-113.35,33.59-172.65,35.67-56.96,1.99-113.72-6.85-167.94-24.21-95.85-30.68-182.9-88.36-282.88-106.26-42.71-7.64-85.88-6-127.43,6.85-43.07,13.32-82.43,35.95-121.78,57.48-41.25,22.57-84.08,45.53-131.02,53.25-54.51,8.98-105.54-8.36-158.11-19.75a394.862,394.862,0,0,0-46.86-7.1c-.17-.02-.33-.03-.5-.04v1.31c.16.02.33.03.5.05,10.14.97,20.26,2.3,30.31,4.11,25.92,4.66,51.2,12.13,76.89,17.81,42.5,9.39,84.68,10.86,126.72-1.54,88.51-26.12,160.03-92.95,251.53-111.06,105.15-20.81,205.06,33.17,298.28,73.9,93.08,40.67,189.38,65.71,291.6,53.74,110.28-12.92,208.09-66.17,312.15-100.57,55.37-18.3,111.87-28.58,170.31-24.55,57.69,3.99,114.01,19.05,168.9,36.55,53.17,16.96,105.37,37.7,159.83,50.33q16.185,3.75,32.48,6.2c.17.03.33.05.5.08v-1.92C2960.71,5178.1,2960.55,5178.07,2960.38,5178.04Zm0,15.54c-34.2-8.26-67.4-20.56-100.6-33.18-95.91-36.46-197.42-66.82-301.18-54.56-107.2,12.67-201.91,70.8-302.67,105.12-55.06,18.75-112.04,29.97-170.4,28.54-55.88-1.37-110.78-13.71-163.37-32.2-94.73-33.29-183.2-87.98-283.31-104.68-43.45-7.25-87.24-5.49-129.62,6.76-45,13-86.56,35.23-128.16,56.28-41.83,21.16-84.92,42.28-131.55,50.16-53.7,9.08-106.01-3.28-159.26-8.98-16.27-1.74-32.57-2.54-48.88-2.79-.17-.01-.33-.01-.5-.01v1.51c.16,0,.33,0,.5.01,11.63.17,23.25.62,34.85,1.55,25.89,2.06,51.48,6.57,77.22,9.89,45.81,5.92,90.5,4.92,134.77-9.15,89.04-28.29,165.04-91.35,258.99-105.3,105.84-15.71,205.98,35.95,300.1,76.67,92.6,40.07,189.32,69.81,291.38,59.9,107.54-10.44,202.4-63.43,301.89-100.81,53.24-20.01,107.74-33.49,164.88-33.66,56.1-.16,111.75,10.66,165.38,26.55,52.2,15.48,101.94,37.79,153.75,54.38q17.82,5.7,35.79,9.77a4.147,4.147,0,0,0,.5.12v-1.77Zm0,14.44c-33.36-10.85-65.37-25.85-97.72-39.65-93.58-39.91-196.02-61.2-297.29-42.03-104.81,19.83-195.92,80.52-295.98,114.59q-4.875,1.665-9.78,3.22c-.52.17-1.05.34-1.57.5-50.95,16.09-103.6,24.2-157.2,20.54-36.75-2.51-72.82-10.04-108.04-20.54-.56-.16-1.12-.33-1.68-.5-16.37-4.92-32.55-10.48-48.54-16.46-94.98-35.52-185.37-88.12-286.42-105.18-45.77-7.73-91.91-6.36-136.81,5.63-44.87,11.99-86.9,32.21-128.76,51.89-43.01,20.22-86.76,40.69-133.65,50.11-54.79,11-109.92,4.86-165.23,4.13-16.79-.22-33.56.25-50.33.99-.17,0-.33.01-.5.02v2.06c.17-.01.34-.01.5-.01,40.54-.9,80.79-.08,121.58.96,47.23,1.2,93.35-3.45,138.26-18.68,90.78-30.78,172.33-90.2,269.86-99.36,106.14-9.95,206.33,39.59,301,80.46,37.44,16.16,75.61,31.52,114.61,43.44.55.17,1.1.34,1.65.5,54.07,16.39,109.72,26.09,167.15,22.08,37.02-2.59,72.46-10.78,106.98-22.08.51-.16,1.01-.33,1.52-.5,64.44-21.28,125.73-53.29,188.2-79.79,52.81-22.4,107.25-39.3,164.79-42.91,53.69-3.37,107.75,3.69,159.53,17.91,52.82,14.5,101.37,38.92,152.05,59.09q15.81,6.285,31.82,11.24c.17.05.33.11.5.15v-1.66C2960.71,5208.13,2960.54,5208.08,2960.38,5208.02Zm0,15.18c-35.59-14.71-69.15-34.39-104.31-50.14-89.86-40.23-191.32-49.74-286.61-24.12-76.97,20.7-145.74,61.86-217.74,95.21-.36.17-.72.34-1.08.5-23.7,10.96-47.77,21.05-72.59,29.27-54.16,17.95-110.58,25.39-167.38,18.13-54.83-7-107.26-25.38-158.13-46.37-.82-.34-1.65-.68-2.47-1.03-.4-.16-.81-.33-1.21-.5-92.27-38.37-183.15-86.55-283.03-101.61a353.454,353.454,0,0,0-139.34,6.32c-46.25,11.59-90.04,30.9-133.6,49.93-39.42,17.21-79.04,34.29-120.61,45.36-.63.18-1.26.34-1.9.5h5.4c.63-.16,1.26-.32,1.89-.5q16.08-4.275,31.93-9.79c94.48-33,182.88-89.72,285.33-94.29,125.15-5.57,235.27,56.48,348.47,104.08.4.17.79.33,1.19.5,76.12,31.93,153.65,57.21,238.11,50.88,60.9-4.56,117.32-25.56,172.13-50.88.36-.17.72-.33,1.08-.5,38.08-17.64,75.41-37.33,112.93-54.99,49.3-23.21,100.18-42.07,154.42-49.5,53.35-7.31,108.21-3.62,160.33,9.66,51.47,13.12,97.22,38.07,144.6,61.16q15.96,7.785,32.19,14.24c.17.07.34.14.5.2v-1.51C2960.71,5223.34,2960.55,5223.27,2960.38,5223.2Zm0,15.63c-34.85-17.69-67.31-40.12-102.76-56.72-86.65-40.56-186.3-41.36-276.33-11.55-54.68,18.11-104.83,46.2-155.31,73.59-.3.17-.61.33-.92.5-44.05,23.89-88.38,47.18-136.23,62.8-56.09,18.3-114.15,23.19-172.21,11.85-52.78-10.31-102.6-31.47-151.44-53.38-15.64-7.02-31.31-14.17-47.05-21.27-.37-.16-.73-.33-1.1-.5-77.34-34.9-156.26-68.61-240.66-80.11a397.025,397.025,0,0,0-147.34,7.54c-46.96,11.31-91.89,29.45-136.49,47.7-20.82,8.52-41.64,16.98-62.65,24.87-.44.17-.89.34-1.33.5h4.96c.44-.16.88-.33,1.32-.5,89.27-34.18,176.83-79.21,274.15-82.26,106.78-3.34,208.11,39.32,303.76,82.26.38.16.75.33,1.12.5,1.73.78,3.46,1.55,5.19,2.33,90.3,40.63,183.28,86.92,285.16,79.51,81.34-5.92,154.05-43.42,224.94-81.84.31-.16.61-.33.92-.5,19.29-10.45,38.44-20.96,57.6-30.92,96.24-50,201.56-78.68,309.34-51.14,50.32,12.86,93.33,39.46,137.95,64.88q12.615,7.184,25.41,13.47c.17.09.33.17.5.25v-1.61C2960.71,5239,2960.55,5238.92,2960.38,5238.83Zm-15.45,5.32c-30.97-20.12-60.72-42.25-94.8-57.06-88.4-38.42-188.82-25.73-274.96,12.2-29.53,13-57.77,28.59-85.66,44.86-.29.16-.57.33-.86.5-64.95,37.91-128.04,79.38-201.16,100.28a305.854,305.854,0,0,1-164.16,1.5c-50.22-13.29-97.09-36.45-143.62-59.04-30.36-14.74-61.11-29.34-92.37-42.74-.39-.17-.78-.34-1.17-.5-63.87-27.33-129.86-49.66-198.95-58.22-103.75-12.85-200.77,16.76-296.38,54.08-3.55,1.38-7.09,2.77-10.64,4.14-.43.17-.86.34-1.29.5h4.52c.42-.16.85-.33,1.27-.5,78.38-30.68,158.03-59.49,243.15-60.18,88.15-.71,173.26,25.88,254.03,60.18.39.17.78.34,1.17.5,19.96,8.5,39.65,17.47,59.06,26.6,87.12,41,175.61,92.37,275.27,87.36,101.66-5.11,189.54-63.82,274.57-113.7.15-.09.3-.18.45-.26.28-.17.57-.34.85-.5,93.4-54.61,197.17-96.29,306.95-71.56,50.79,11.44,92.52,38.86,135.17,67.27q3.255,2.175,6.53,4.29c.26.17.51.33.77.5h3.04C2945.45,5244.49,2945.19,5244.32,2944.93,5244.15Zm-16.78,0c-23.79-18.05-47.84-35.62-75.57-47.48-89.42-38.23-190.07-15.3-272.88,28.26-11.54,6.07-22.89,12.52-34.12,19.22-.28.17-.56.33-.84.5-82.48,49.3-158.29,111.8-253.06,136.01-53.72,13.72-108.12,10.37-160.54-7.09-50.43-16.79-96.77-43.47-143.71-67.93-44.16-23.02-89.87-44.11-136.97-60.99-.46-.17-.93-.33-1.4-.5-50.11-17.86-101.78-30.93-154.81-36.48-89.33-9.35-175.92,8.17-259.76,36.48-.49.16-.99.33-1.48.5h4.6c.49-.17.99-.34,1.48-.5,64.43-21.79,130.64-37.46,199.17-37.76,70.41-.31,139.5,14.52,205.77,37.76.47.16.95.33,1.42.5a1015.875,1015.875,0,0,1,107.63,45.55c88.01,42.93,175.27,103.79,277.36,100.89,102.25-2.91,190-64.43,272.52-118.12,14.91-9.7,30.16-19.25,45.73-28.32.28-.16.57-.33.85-.5,78.89-45.84,165.96-79.4,258.9-59.65,44.86,9.53,80.98,33.25,116.63,59.65l.68.5h3.06C2928.59,5244.48,2928.37,5244.32,2928.15,5244.15Zm-382.57,0c-.28.17-.56.33-.84.5-82.48,49.3-158.29,111.8-253.06,136.01-53.72,13.72-108.12,10.37-160.54-7.09-50.43-16.79-96.77-43.47-143.71-67.93-44.16-23.02-89.87-44.11-136.97-60.99h-5.01a1015.875,1015.875,0,0,1,107.63,45.55c88.01,42.93,175.27,103.79,277.36,100.89,102.25-2.91,190-64.43,272.52-118.12,14.91-9.7,30.16-19.25,45.73-28.32.28-.16.57-.33.85-.5Zm0,0c-.28.17-.56.33-.84.5-82.48,49.3-158.29,111.8-253.06,136.01-53.72,13.72-108.12,10.37-160.54-7.09-50.43-16.79-96.77-43.47-143.71-67.93-44.16-23.02-89.87-44.11-136.97-60.99h-5.01a1015.875,1015.875,0,0,1,107.63,45.55c88.01,42.93,175.27,103.79,277.36,100.89,102.25-2.91,190-64.43,272.52-118.12,14.91-9.7,30.16-19.25,45.73-28.32.28-.16.57-.33.85-.5Zm370.13,0c-19.85-15.88-40.76-30.16-64.91-39.47-85.78-33.08-178.52-4.71-254.87,39.47-.29.16-.58.33-.86.5q-7.77,4.515-15.31,9.23c-94.1,58.85-178.47,142.21-291.2,163.79-111.44,21.33-202.89-44.3-295.43-95.12-62.65-34.41-129.87-61.53-199.56-77.9-.72-.17-1.44-.34-2.16-.5a654.409,654.409,0,0,0-95.2-14.9c-63.89-5.14-127.44.9-189.41,14.9-.73.16-1.46.33-2.19.5h6.14c.74-.17,1.49-.33,2.24-.5,44.54-9.77,89.92-15.33,135.77-15.28a628.768,628.768,0,0,1,135.27,15.28c.74.16,1.49.32,2.23.5,63.38,14.23,124.86,37.47,182.58,66.98,85.28,43.59,167.11,109.52,266.97,112.11,142.24,3.69,245.95-109.39,362.94-179.09.28-.17.56-.33.84-.5,64.25-38.14,132.53-63.09,213.42-48.36,38.43,7,69.87,25.58,99.37,48.36.22.16.43.33.65.5h3.31C2916.13,5244.48,2915.92,5244.31,2915.71,5244.15Zm-685.27,146.94c102.25-2.91,190-64.43,272.52-118.12,14.91-9.7,30.16-19.25,45.73-28.32.28-.16.57-.33.85-.5h-3.96c-.28.17-.56.33-.84.5-82.48,49.3-158.29,111.8-253.06,136.01-53.72,13.72-108.12,10.37-160.54-7.09-50.43-16.79-96.77-43.47-143.71-67.93-44.16-23.02-89.87-44.11-136.97-60.99h-5.01a1015.875,1015.875,0,0,1,107.63,45.55C2041.09,5333.13,2128.35,5393.99,2230.44,5391.09Zm315.14-146.94c-.28.17-.56.33-.84.5-82.48,49.3-158.29,111.8-253.06,136.01-53.72,13.72-108.12,10.37-160.54-7.09-50.43-16.79-96.77-43.47-143.71-67.93-44.16-23.02-89.87-44.11-136.97-60.99h-5.01a1015.875,1015.875,0,0,1,107.63,45.55c88.01,42.93,175.27,103.79,277.36,100.89,102.25-2.91,190-64.43,272.52-118.12,14.91-9.7,30.16-19.25,45.73-28.32.28-.16.57-.33.85-.5Zm0,0c-.28.17-.56.33-.84.5-82.48,49.3-158.29,111.8-253.06,136.01-53.72,13.72-108.12,10.37-160.54-7.09-50.43-16.79-96.77-43.47-143.71-67.93-44.16-23.02-89.87-44.11-136.97-60.99h-5.01a1015.875,1015.875,0,0,1,107.63,45.55c88.01,42.93,175.27,103.79,277.36,100.89,102.25-2.91,190-64.43,272.52-118.12,14.91-9.7,30.16-19.25,45.73-28.32.28-.16.57-.33.85-.5Zm359.16,0c-19.82-15.19-41.4-27.63-66.69-34.28-68.14-17.92-134.98,1.58-195.06,34.28-.31.16-.62.33-.92.5h2.97c.3-.17.61-.33.91-.5,46.5-25.31,96.54-41.76,152.05-38.84,40.11,2.1,73.16,17,103.11,38.84.23.16.46.33.69.5h3.58C2905.17,5244.48,2904.95,5244.31,2904.74,5244.15Zm-81.84,0c-33.62-7.1-67.55-6.36-100.74,0-.85.16-1.7.32-2.55.5h1.36c.88-.18,1.76-.34,2.65-.5a250.688,250.688,0,0,1,90.41,0c.89.15,1.79.32,2.69.5h8.5C2824.45,5244.48,2823.68,5244.31,2822.9,5244.15Z" transform="translate(-1039.881 -423.793)"/></g></svg>