<svg xmlns="http://www.w3.org/2000/svg" width="30" height="25.901" viewBox="0 0 30 25.901"><defs><style>.a{fill:#ff6647;}</style></defs><g transform="translate(-256 -97)"><path class="a" d="M283.191,69.686h-3.772a.542.542,0,0,0-.561.521v.487h0l.013,6.887v.05c0,.038.015.047.022.07a.506.506,0,0,0,.233.3s1.4.765,1.759,1.019a.732.732,0,0,0,.741.042s1.539-.9,1.825-1.061a.448.448,0,0,0,.259-.413V77.19c0-.012.008-.023.008-.036V70.7l0,0V70.18A.514.514,0,0,0,283.191,69.686Zm-.666,7.633-1.235.716-1.234-.716-.006-.15,0-.015V70.7h.879v5.784a.39.39,0,0,0,.777,0V70.7h.816v6.4h0Z" transform="translate(-10.301 39.9)"/><path class="a" d="M294.228,67.261h-5.181a9.486,9.486,0,0,0,.1-1.4c0-4.833-3.521-8.763-7.85-8.763s-7.849,3.93-7.849,8.763a9.664,9.664,0,0,0,.1,1.4h-5.181c-1.923,0-2.073,6.024-2.073,7.87S266.451,83,268.374,83h25.854c1.924,0,2.073-6.023,2.073-7.869S296.152,67.261,294.228,67.261Zm-18.569,0h-.908a8.949,8.949,0,0,1-.114-1.4c0-4.279,2.989-7.76,6.664-7.76s6.664,3.481,6.664,7.76a8.879,8.879,0,0,1-.113,1.4m-8.971,6.618h-.791l-8.3-4.921a5.523,5.523,0,0,0-.257-.694h1.362l7.079,4.423a.657.657,0,0,0,.352.1h.56M268.374,81.82a18.6,18.6,0,0,1-.887-6.689,18.662,18.662,0,0,1,.885-6.686,4.546,4.546,0,0,1,.319.919,24.893,24.893,0,0,1,.572,5.767A18.586,18.586,0,0,1,268.374,81.82Zm4.768.178h-3.614a17.76,17.76,0,0,0,.891-5.551,4.178,4.178,0,0,1,3.264,3.753A3.388,3.388,0,0,1,273.142,82Zm16.318,0a3.39,3.39,0,0,1-.54-1.8,4.18,4.18,0,0,1,3.264-3.754A17.736,17.736,0,0,0,293.075,82ZM278.886,71.613m0,.171h-.364l-5.632-3.52h16.832l-5.632,3.52h-.348v1h.545a.668.668,0,0,0,.352-.1l7.079-4.424h1.362a5.1,5.1,0,0,0-.257.694l-8.306,4.921h-.775v1h.962a.669.669,0,0,0,.34-.091L292.5,70.37a32.8,32.8,0,0,0-.348,4.761c0,.059,0,.153,0,.275-2.611.618-4.422,2.573-4.422,4.794a4.215,4.215,0,0,0,.413,1.8H274.456a4.168,4.168,0,0,0,.412-1.8c0-2.222-1.811-4.177-4.423-4.794l0-.275a32.747,32.747,0,0,0-.347-4.761l7.464,4.421a.667.667,0,0,0,.339.091h.978m15.345,6.934a18.626,18.626,0,0,1-.886-6.685,24.9,24.9,0,0,1,.574-5.781,4.539,4.539,0,0,1,.314-.9c.365.72.888,3.014.888,6.682S294.591,81.1,294.226,81.816Z" transform="translate(-10.301 39.9)"/><path class="a" d="M283.721,71.465" transform="translate(-10.301 39.9)"/></g></svg>