<svg xmlns="http://www.w3.org/2000/svg" width="34.577" height="22.793" viewBox="0 0 34.577 22.793"><defs><style>.a{fill:#ff6647;}</style></defs><g transform="translate(-258 -103.001)"><path class="a" d="M40.345,159.389l1.3-4.223a2.553,2.553,0,0,0-1.556-3.148l-1.371-.5-1.4-6.847a.7.7,0,0,0-.709-.579H34.5V141.4a.76.76,0,0,0-.742-.741H28.185a.76.76,0,0,0-.741.741V144.1h-2.1a.7.7,0,0,0-.708.565l-1.4,6.861-1.375.5a2.536,2.536,0,0,0-1.554,3.147l1.335,4.222a1.778,1.778,0,0,0,1.647.278l-1.512-4.918a1.077,1.077,0,0,1,.66-1.36l6.428-2.362a5.257,5.257,0,0,1,1.066-.276l.326-.036v8.91a1.646,1.646,0,0,0,1.48-.007v-8.94l.326.036a5.023,5.023,0,0,1,1.041.266l6.489,2.372a1.079,1.079,0,0,1,.655,1.372l-1.51,4.948a1.67,1.67,0,0,0,.531.088A2.105,2.105,0,0,0,40.345,159.389ZM28.926,142.1h4.059V144.1H28.926Zm4.627,7.551a7.793,7.793,0,0,0-5.234,0L24.835,150.9l1.117-5.363H35.961l1.073,5.362Z" transform="translate(244.37 -37.66)"/><path class="a" d="M14.6,159.879a.717.717,0,0,0,.741.741A5.833,5.833,0,0,0,19.282,159l.2-.181.2.181a5.831,5.831,0,0,0,3.939,1.622,5.988,5.988,0,0,0,3.977-1.659l.2-.181.2.181a5.6,5.6,0,0,0,7.879,0l.2-.181.2.181a5.553,5.553,0,0,0,7.842,0l.2-.181.2.181a5.83,5.83,0,0,0,3.94,1.621.742.742,0,0,0,.741-.739.685.685,0,0,0-.741-.7,4.761,4.761,0,0,1-3.588-1.917.744.744,0,0,0-.581-.254.655.655,0,0,0-.512.245,4.7,4.7,0,0,1-3.593,1.925,4.754,4.754,0,0,1-3.587-1.917.733.733,0,0,0-.562-.254h-.019a.653.653,0,0,0-.512.245,4.708,4.708,0,0,1-3.594,1.925,4.619,4.619,0,0,1-3.587-1.917.742.742,0,0,0-.581-.254.651.651,0,0,0-.511.245,4.7,4.7,0,0,1-3.594,1.925,4.758,4.758,0,0,1-3.587-1.917.751.751,0,0,0-1.1,0,4.759,4.759,0,0,1-3.587,1.916A.742.742,0,0,0,14.6,159.879Z" transform="translate(243.399 -34.826)"/></g></svg>