<svg xmlns="http://www.w3.org/2000/svg" width="30" height="29.177" viewBox="0 0 30 29.177"><defs><style>.a{fill:#ff6647;}</style></defs><g transform="translate(-257 -98)"><path class="a" d="M94.546,70.016H89.773v-.608h3.409a.647.647,0,0,0,.682-.607v-7.3a.648.648,0,0,0-.682-.608H91.137V57.251a1.947,1.947,0,0,0-2.046-1.823H87.046a.648.648,0,0,0-.682.608V66.369a.648.648,0,0,0,.682.608h2.045a1.947,1.947,0,0,0,2.046-1.824V62.114H92.5v6.079H89.091a.648.648,0,0,0-.682.608v1.215H87.046V68.8a.648.648,0,0,0-.682-.608H84.9a.611.611,0,1,0,0,1.215h.778v.608H82.32a3.807,3.807,0,0,0,.63-2.5.658.658,0,0,0-.677-.538H79.082l-4.6-2.926a.734.734,0,0,0-.4-.113H71.364a3.243,3.243,0,0,0-3.409,3.039v6.686a4.542,4.542,0,0,0,4.773,4.255H77.1l3.9,6.37a.7.7,0,0,0,.6.317.745.745,0,0,0,.325-.074.576.576,0,0,0,.273-.825L78.1,77.02a.7.7,0,0,0-.6-.317H72.728a3.245,3.245,0,0,1-3.41-3.04V66.977a1.947,1.947,0,0,1,2.046-1.824h2.509l4.6,2.926a.735.735,0,0,0,.4.114h2.73a2.143,2.143,0,0,1-.543,1.322,2.026,2.026,0,0,1-1.505.5H77.025l-3.919-2.329a.734.734,0,0,0-.946.169.568.568,0,0,0,.189.842l1.742,1.036v3.322a.647.647,0,0,0,.682.607h3.409a2.727,2.727,0,0,1,2.57,1.618l3.292,8.906a.682.682,0,0,0,.648.418.777.777,0,0,0,.213-.03.6.6,0,0,0,.435-.768l-3.3-8.917a4.094,4.094,0,0,0-3.861-2.442H75.455V71.232H94.546a.612.612,0,1,0,0-1.216Zm-4.773-4.863a.648.648,0,0,1-.682.608H87.728V56.643h1.363a.649.649,0,0,1,.682.608Z" transform="translate(191.772 42.572)"/><path class="a" d="M72.178,63.216a3.093,3.093,0,0,0,3.248-2.9v-.785a3.269,3.269,0,0,0-6.5,0v.785A3.094,3.094,0,0,0,72.178,63.216ZM70.11,59.529a2.087,2.087,0,0,1,4.135,0v.785a2.087,2.087,0,0,1-4.135,0Z" transform="translate(191.772 42.572)"/><path class="a" d="M76.137,83.355H73.692l-.964-.884V80.23h3.409a.627.627,0,1,0,0-1.25H71.364a4.593,4.593,0,0,1-4.773-4.375v-1.25H71l1.161,1.6a.7.7,0,0,0,.568.279.727.727,0,0,0,.378-.105.594.594,0,0,0,.189-.867l-1.364-1.875a.7.7,0,0,0-.567-.278H66.591V65.23a.684.684,0,0,0-1.363,0v9.375a5.9,5.9,0,0,0,6.136,5.625v2.241l-.964.884H67.955a.627.627,0,1,0,0,1.25h2.727a.715.715,0,0,0,.482-.183l.882-.808.881.808a.715.715,0,0,0,.482.183h2.728a.627.627,0,1,0,0-1.25Z" transform="translate(191.772 42.572)"/></g></svg>