<svg xmlns="http://www.w3.org/2000/svg" width="30" height="22.493" viewBox="0 0 30 22.493">
<defs>
<style>
.a{fill:#ff6647;}</style>
</defs>
<g transform="translate(-235 -25.999)">
<path class="a" d="M195.417,76.4c0-.043-.008-.079-.014-.079l0,0V69.937a3.013,3.013,0,0,0-.41-1.517l-.8-1.357a.484.484,0,0,0-.106-.193l-.768-1.315-2.205-4.843c-.037-.083-.934-2.029-3.992-2.029H173.7c-3.06,0-3.954,1.945-3.989,2.025l-2.179,4.79-.772,1.34a.47.47,0,0,0-.109.176l-.819,1.406a3.017,3.017,0,0,0-.409,1.517l0,8.888a1.889,1.889,0,0,0,.436,1.419,3.339,3.339,0,0,0,2.673.932c3.354,0,3.524-2.091,3.53-2.2V77.128l16.692-.043,0,1.943c.006.088.2,2.148,3.528,2.148a3.343,3.343,0,0,0,2.674-.932,1.867,1.867,0,0,0,.438-1.388Zm-26.88,3.485a2.293,2.293,0,0,1-1.677-.465.605.605,0,0,1-.153-.43.693.693,0,0,0,.009-.111V77.047h4.061l0,1.864C170.775,78.951,170.626,79.889,168.537,79.889ZM186.53,64.4a2.828,2.828,0,0,1,2.76,2.218h-5.52A2.827,2.827,0,0,1,186.53,64.4Zm-18.157,2.218.308-.53,2.207-4.846c.034-.07.646-1.271,2.815-1.271h13.42c2.2,0,2.791,1.219,2.815,1.269l2.236,4.9.276.473h-1.817a4.151,4.151,0,0,0-8.205,0Zm25.745,12.364a.6.6,0,0,1-.152.443,2.293,2.293,0,0,1-1.677.465c-1.826,0-2.175-.735-2.239-.941v-1.9h4.06v1.836A.778.778,0,0,0,194.118,78.981Zm-.008-9.044v5.824H166.716V69.937a1.745,1.745,0,0,1,.235-.871l.666-1.146h25.592l.667,1.146A1.729,1.729,0,0,1,194.11,69.937Z" transform="translate(69.583 -32.684)"/>
<path class="a" d="M176.258,70.819h8.563a.644.644,0,0,0,0-1.287h-8.563a.644.644,0,0,0,0,1.287Z" transform="translate(69.583 -32.684)"/>
<path class="a" d="M184.821,72.9h-8.563a.644.644,0,0,0,0,1.287h8.563a.644.644,0,0,0,0-1.287Z" transform="translate(69.583 -32.684)"/>
<path class="a" d="M173.933,69.262h-5.244a.519.519,0,0,0-.52.516V73.94a.519.519,0,0,0,.52.517h5.244a.519.519,0,0,0,.52-.517V69.778A.519.519,0,0,0,173.933,69.262Zm-4.725,4.162V70.295h4.206v3.129Z" transform="translate(69.583 -32.684)"/>
<path class="a" d="M192.458,69.262h-5.246a.518.518,0,0,0-.519.516V73.94a.518.518,0,0,0,.519.517h5.246a.517.517,0,0,0,.518-.517V69.778A.517.517,0,0,0,192.458,69.262Zm-.519,1.033v3.129h-4.208V70.295Z" transform="translate(69.583 -32.684)"/>
</g>
</svg>
