<svg xmlns="http://www.w3.org/2000/svg" width="30" height="25.508" viewBox="0 0 30 25.508"><defs><style>.a{fill:#ff6647;}</style></defs><g transform="translate(-258 -100)"><path class="a" d="M44.694,71.342a3.336,3.336,0,0,0-3.109-2.155H41.1V66.966a3.2,3.2,0,0,0-3.2-3.2H21.857a3.2,3.2,0,0,0-3.2,3.2v2.253h-.487a3.363,3.363,0,0,0-1.212,6.453v2.113a2.54,2.54,0,0,0,1.7,2.4v1.856a.679.679,0,1,0,1.358,0V80.357H39.727v1.726a.679.679,0,1,0,1.357,0V82a.112.112,0,0,1,.006-.023.215.215,0,0,0,.01-.06v-1.73a2.537,2.537,0,0,0,1.7-2.4V75.673a3.364,3.364,0,0,0,1.9-4.331ZM17.807,74.518a2,2,0,0,1,.346-3.971H18.3a1.947,1.947,0,0,1,1.354.555,2.017,2.017,0,0,1,.614,1.445V75.8a.681.681,0,0,0,.679.681H38.816a.681.681,0,0,0,.679-.681V72.546a2,2,0,0,1,1.9-2.092l.093,0a2.068,2.068,0,0,1,.46,4.066h0a.683.683,0,0,0-.51.648v2.619A1.212,1.212,0,0,1,40.232,79h-20.7a1.212,1.212,0,0,1-1.209-1.212v-2.62A.682.682,0,0,0,17.807,74.518Zm20.33-1.762v2.361H21.623V72.756Zm1.6-3.074a2.889,2.889,0,0,0-.582.464,3.1,3.1,0,0,0-.82,1.249H21.421a3.1,3.1,0,0,0-.818-1.247,2.9,2.9,0,0,0-.585-.466V66.966a1.844,1.844,0,0,1,1.839-1.843H37.9a1.844,1.844,0,0,1,1.839,1.843Z" transform="translate(243.081 42.744)"/><rect class="a" width="1.362" height="3.958" rx="0.637" transform="translate(272.322 100)"/><path class="a" d="M34.882,62.416h0a.685.685,0,0,1-.328-.907l1.1-2.349a.682.682,0,0,1,.9-.329h0a.685.685,0,0,1,.328.908l-1.1,2.348A.683.683,0,0,1,34.882,62.416Z" transform="translate(243.081 42.744)"/><rect class="a" width="1.362" height="3.958" rx="0.637" transform="translate(273.677 103.959) rotate(-180)"/><path class="a" d="M24.956,62.416h0a.686.686,0,0,0,.329-.907l-1.1-2.349a.683.683,0,0,0-.906-.329h0a.685.685,0,0,0-.328.908l1.1,2.348A.682.682,0,0,0,24.956,62.416Z" transform="translate(243.081 42.744)"/></g></svg>