<svg xmlns="http://www.w3.org/2000/svg" width="37.595" height="38.65" viewBox="0 0 37.595 38.65"><defs><style>.a{fill:#ff6647;}</style></defs><path class="a" d="M35.833,23.617a14.241,14.241,0,0,0,.121-1.892,11.629,11.629,0,0,0-.141-1.892L39.9,16.652a.988.988,0,0,0,.242-1.228L36.276,8.741A.983.983,0,0,0,35.088,8.3l-4.811,1.933a14.221,14.221,0,0,0-3.261-1.892l-.725-5.113a.974.974,0,0,0-.966-.825h-7.73a.954.954,0,0,0-.946.825l-.725,5.113a14.534,14.534,0,0,0-3.261,1.892L7.852,8.3a.961.961,0,0,0-1.188.443L2.819,15.424a.915.915,0,0,0,.242,1.228l4.086,3.181a11.2,11.2,0,0,0-.04,3.785L3.02,26.8a.988.988,0,0,0-.242,1.228l3.865,6.683a.983.983,0,0,0,1.188.443l4.811-1.933A14.221,14.221,0,0,0,15.9,35.112l.725,5.113a.989.989,0,0,0,.966.825h7.73a.939.939,0,0,0,.946-.825L27,35.112a13.807,13.807,0,0,0,3.261-1.892l4.811,1.933a.961.961,0,0,0,1.188-.443l3.865-6.683a.932.932,0,0,0-.242-1.228ZM21.46,28.972a7.247,7.247,0,1,1,7.247-7.247A7.268,7.268,0,0,1,21.46,28.972Z" transform="translate(-2.662 -2.4)"/></svg>