<svg xmlns="http://www.w3.org/2000/svg" width="34.034" height="17.496" viewBox="0 0 34.034 17.496"><defs><style>.a{fill:#ff6647;}</style></defs><g transform="translate(-258 -106)"><path class="a" d="M347.542,75.416c-.269-.012-.538-.011-.807-.02l-1.884,1.511-1.6-1.3a.535.535,0,0,0-.058-.127.556.556,0,0,0-.149-.135c-.509,0-1.018.006-1.527.016a.557.557,0,0,0,.2.458l.025.02-1.48,1.086-1.814-1.478c-.506.019-1.012.035-1.519.057a.566.566,0,0,0,.1.22l-1.64,1.2-1.422-1.158a.67.67,0,0,0-.043-.127c-.59.028-1.181.052-1.771.078a.512.512,0,0,0,.084.1l.1.082-1.4,1.024-1.358-1.107q-.907.032-1.815.056l-1.435,1.052-1.258-1.026q-1.091,0-2.18-.025l-1.433,1.05-1.47-1.2a3.289,3.289,0,0,1-1.686-.77.521.521,0,0,0-.078.064.566.566,0,0,0,.082.8l2.775,2.263a.568.568,0,0,0,.694.017l2.211-1.62,1.966,1.6a.568.568,0,0,0,.694.017l2.074-1.519,1.841,1.5a.567.567,0,0,0,.357.127.558.558,0,0,0,.335-.11l1.992-1.459,1.768,1.442a.572.572,0,0,0,.358.127.566.566,0,0,0,.336-.11l2.212-1.62,1.965,1.6a.572.572,0,0,0,.358.127.566.566,0,0,0,.336-.11l2.074-1.519,1.841,1.5a.563.563,0,0,0,.358.127.572.572,0,0,0,.355-.125l2.865-2.3a.564.564,0,0,0,.206-.4A3.745,3.745,0,0,1,347.542,75.416Z" transform="translate(-58.712 45.292)"/><path class="a" d="M348.8,70.474l-6.778-1.807-5.048-2.314.153-.152a.567.567,0,0,0-.8-.8l-.45.45-1.234-.567.218-.218a.567.567,0,0,0-.8-.8l-.515.515-1.234-.567.284-.284a.567.567,0,0,0-.8-.8l-.582.585-2.753-1.262a.567.567,0,0,0-.728.234l-1.615,2.827a1.708,1.708,0,0,1-1.478.858H322.99l-.1-.382a2.491,2.491,0,0,0-4.75-.269l-.51,1.361a11.865,11.865,0,0,0-.758,4.184v3.614a2.83,2.83,0,0,0,2.574,2.81l.013.012h28.251l.123-.092a3.976,3.976,0,0,0,3.073-3.865v-.525A2.84,2.84,0,0,0,348.8,70.474Zm-30.794.786c0-.3.015-.6.04-.894.008-.093.02-.185.031-.278.023-.205.049-.41.083-.613.018-.1.037-.209.057-.313q.056-.291.133-.579c.025-.1.051-.2.079-.3.015-.051.034-.1.05-.154l8.674,5.187-9.146-.669Zm28.929,5.316H319.712a1.7,1.7,0,0,1-1.7-1.7V73.784l11.052.808.4.029,11.2.821h.042a.425.425,0,0,0,.066,0l8.935-1.052A2.84,2.84,0,0,1,346.939,76.577Zm-6.252-2.269L329.676,73.5l-10.815-6.468.345-.919a1.358,1.358,0,0,1,2.589.146l.2.811a.566.566,0,0,0,.55.43h2.086a2.843,2.843,0,0,0,2.463-1.429l1.358-2.377,1.9.87-.267.267a.567.567,0,0,0,.788.816l.014-.014.564-.564,1.234.567-.331.33a.568.568,0,0,0,.788.817l.014-.015.628-.63,1.234.567-.4.4a.567.567,0,0,0,.787.817l.015-.015.693-.693,5.476,2.509a.5.5,0,0,0,.09.033l2.253.6-2.6,1.3a2.814,2.814,0,0,1-1.581.284l-1.271-.141a.567.567,0,0,0-.125,1.128l1.271.141a4.029,4.029,0,0,0,.438.024,3.955,3.955,0,0,0,1.775-.419l3.64-1.822a.556.556,0,0,0,.077-.059l2.944.785a1.7,1.7,0,0,1,1.264,1.642Z" transform="translate(-58.876 43.604)"/></g></svg>