<svg xmlns="http://www.w3.org/2000/svg" width="27.053" height="27.206" viewBox="0 0 27.053 27.206"><defs><style>.a{fill:#ff6647;}</style></defs><g transform="translate(-259 -101)"><rect class="a" width="26.164" height="1.319" transform="translate(259.445 118.062)"/><path class="a" d="M369.743,76.644a.66.66,0,0,0,.658.659h25.95V75.985H370.4A.66.66,0,0,0,369.743,76.644Z" transform="translate(-110.743 45.037)"/><path class="a" d="M385.138,69.993h3.231a.66.66,0,0,0,0-1.32h-3.231a.66.66,0,0,0,0,1.32Z" transform="translate(-109.734 44.536)"/><path class="a" d="M385.138,67.223h3.231a.659.659,0,1,0,0-1.317h-3.231a.659.659,0,1,0,0,1.317Z" transform="translate(-109.734 44.347)"/><path class="a" d="M396.387,68.121a5.8,5.8,0,0,1-3.784-5.239V57.907a.661.661,0,0,0-.659-.659h-4.138l-.023,0-.036.013a.658.658,0,0,0-.209.056l-.066.031a.688.688,0,0,0-.186.169h0l-.01.01,0,0-.033.043c-.506.837-2.178,1.443-3.97,1.443s-3.454-.6-3.968-1.438a.207.207,0,0,0-.048-.059l-.007-.01a.628.628,0,0,0-.17-.152.638.638,0,0,0-.093-.045.694.694,0,0,0-.152-.04l-4.235-.018a.66.66,0,0,0-.659.659v4.975a5.8,5.8,0,0,1-3.784,5.239.658.658,0,0,0-.409.611v15.06a.661.661,0,0,0,.658.66h25.736a.661.661,0,0,0,.659-.66V68.732A.657.657,0,0,0,396.387,68.121ZM380.875,83.133h-9.814V69.16a7.1,7.1,0,0,0,4.194-6.278V58.567h3.13l4.087,6.006L380.278,67.8a.641.641,0,0,0-.115.371v13A3.063,3.063,0,0,0,380.875,83.133Zm14.6-13.972V83.133H383.749a2.133,2.133,0,0,1-2.268-1.96v-12.8l6.674-9.806h3.128v4.315A7.1,7.1,0,0,0,395.478,69.16Zm-14.5-9.133a9.087,9.087,0,0,0,4.592,0l-2.3,3.373Z" transform="translate(-110.743 43.754)"/></g></svg>