<svg xmlns="http://www.w3.org/2000/svg" width="298" height="48.581" viewBox="0 0 298 48.581"><defs><style>.a{fill:#080d29;}.b{fill:#ff6647;}</style></defs><path class="a" d="M1215.64,1332.21q3.944,3.82,3.943,11.336v19.622h-10v-18.093q0-4.076-1.794-6.084a6.6,6.6,0,0,0-5.193-2.007,7.972,7.972,0,0,0-6.024,2.327q-2.238,2.325-2.245,6.9v16.946h-10v-34.262h5.5a4.03,4.03,0,0,1,4.039,4.014h0a13.307,13.307,0,0,1,4.936-3.344,17.318,17.318,0,0,1,6.474-1.179A14.251,14.251,0,0,1,1215.64,1332.21Z" transform="translate(-1103.99 -1321.306)"/><path class="a" d="M1259.154,1328.9v34.274h-5.384a4.09,4.09,0,0,1-4.1-4.077h0a13.265,13.265,0,0,1-4.745,3.408,15,15,0,0,1-5.959,1.179q-6.8,0-10.772-3.887t-3.972-11.53V1328.9h10v17.9q0,8.28,7,8.283a7.531,7.531,0,0,0,5.769-2.326q2.179-2.326,2.181-6.912V1328.9Z" transform="translate(-1103.263 -1321.313)"/><path class="a" d="M1301.978,1328.9l-14.553,34.274H1277.1l-14.489-34.274h10.32l9.541,23.317,9.858-23.317Z" transform="translate(-1103.519 -1321.313)"/><path class="a" d="M1330.865,1332.175q4.293,3.794,4.3,11.438v19.556H1330.1a4.282,4.282,0,0,1-4.293-4.269h0q-2.824,4.778-10.514,4.779a16.428,16.428,0,0,1-6.892-1.336,10.281,10.281,0,0,1-4.452-3.695,9.6,9.6,0,0,1-1.537-5.354,8.912,8.912,0,0,1,3.62-7.515q3.618-2.741,11.194-2.728h7.95a6.316,6.316,0,0,0-1.988-5q-1.987-1.753-5.96-1.751a17.484,17.484,0,0,0-5.406.86,14.343,14.343,0,0,0-4.52,2.323l-3.59-6.952a21.714,21.714,0,0,1,6.761-3.056,30.411,30.411,0,0,1,8.109-1.084Q1326.581,1328.386,1330.865,1332.175Zm-8.526,23.637a6.446,6.446,0,0,0,2.82-3.477v-3.5H1318.3q-6.161,0-6.158,4.014a3.57,3.57,0,0,0,1.508,3.028,6.811,6.811,0,0,0,4.134,1.115,8.762,8.762,0,0,0,4.561-1.179Z" transform="translate(-1103.784 -1321.306)"/><path class="a" d="M1371.708,1332.21q3.934,3.82,3.934,11.336v19.622h-10v-18.093q0-4.076-1.8-6.084a6.606,6.606,0,0,0-5.19-2.007,8.033,8.033,0,0,0-6.042,2.327q-2.259,2.325-2.223,6.9v16.946h-10v-34.262h5.511a4.027,4.027,0,0,1,4.039,4.014h0a13.321,13.321,0,0,1,4.936-3.344,17.32,17.32,0,0,1,6.475-1.179A14.244,14.244,0,0,1,1371.708,1332.21Z" transform="translate(-1104.037 -1321.306)"/><path class="a" d="M1402.31,1361.421a10.356,10.356,0,0,1-3.622,1.624,18.443,18.443,0,0,1-4.52.541q-6.154,0-9.521-3.122t-3.365-9.166v-30.074h4.268a5.707,5.707,0,0,1,5.725,5.689v2.648h8.586v7.644h-8.586v13.969a4.678,4.678,0,0,0,1.12,3.348,4.16,4.16,0,0,0,3.179,1.179,6.45,6.45,0,0,0,4.039-1.264Z" transform="translate(-1104.31 -1321.214)"/><rect class="b" width="15.001" height="14.913" rx="2.829" transform="translate(34.031 0.001)"/><rect class="b" width="15.001" height="14.913" rx="2.829" transform="translate(0 33.667)"/><path class="b" d="M1148.674,1354.882h-7.422l-.011-.01q-.39-.071-.768-.176a8.149,8.149,0,0,1-5.891-7.887V1340.8a2.8,2.8,0,0,0-2.809-2.792h-6.285a8.1,8.1,0,0,1-5.416-2c-.1-.089-.194-.179-.288-.271a8.01,8.01,0,0,1-2.331-5.728v-6a2.8,2.8,0,0,0-2.81-2.792h-9.381a2.8,2.8,0,0,0-2.81,2.792v9.329a2.8,2.8,0,0,0,2.81,2.793h6.139a7.948,7.948,0,0,1,3.614.823,8.7,8.7,0,0,1,3.24,2.853,7.931,7.931,0,0,1,1.327,4.473v5.849a2.8,2.8,0,0,0,2.809,2.792h5.934a7.928,7.928,0,0,1,3.615.824,8.7,8.7,0,0,1,3.195,2.8,7.9,7.9,0,0,1,1.349,4.505V1367a2.8,2.8,0,0,0,2.81,2.792h9.381a2.8,2.8,0,0,0,2.81-2.792v-9.329A2.8,2.8,0,0,0,1148.674,1354.882Z" transform="translate(-1102.451 -1321.214)"/></svg>