<svg xmlns="http://www.w3.org/2000/svg" xmlns:xlink="http://www.w3.org/1999/xlink" width="723" height="669" viewBox="0 0 723 669"><defs><style>.a{fill:none;}.b{clip-path:url(#a);}.c{fill:#1e2234;}.d{fill:url(#b);}</style><clipPath id="a"><rect class="a" width="684.984" height="627.177"/></clipPath><linearGradient id="b" x1="0.018" y1="0.344" x2="0.337" y2="0.475" gradientUnits="objectBoundingBox"><stop offset="0" stop-color="#282c3f" stop-opacity="0"/><stop offset="1" stop-color="#282c3f"/></linearGradient></defs><g transform="translate(1 -410)"><g class="b" transform="translate(23 432)"><g transform="translate(-23 -2567)"><rect class="c" width="26.165" height="26.176" rx="4.901" transform="translate(440.74 2567)"/><rect class="c" width="26.165" height="26.176" rx="4.901" transform="translate(500.367 2567)"/><rect class="c" width="26.166" height="26.176" rx="4.901" transform="translate(679.254 2567)"/><rect class="c" width="26.165" height="26.176" rx="4.901" transform="translate(738.881 2567)"/><rect class="c" width="26.165" height="26.176" rx="4.901" transform="translate(798.51 2567)"/><rect class="c" width="26.165" height="26.176" rx="4.901" transform="translate(858.139 2567)"/><rect class="c" width="26.165" height="26.176" rx="4.901" transform="translate(917.766 2567)"/><rect class="c" width="26.165" height="26.176" rx="4.901" transform="translate(977.395 2567)"/><rect class="c" width="26.165" height="26.176" rx="4.901" transform="translate(1037.023 2567)"/><rect class="c" width="26.166" height="26.176" rx="4.901" transform="translate(1096.65 2567)"/><rect class="c" width="26.166" height="26.176" rx="4.901" transform="translate(1156.279 2567)"/><rect class="c" width="26.165" height="26.176" rx="4.901" transform="translate(559.973 2567)"/><rect class="c" width="26.165" height="26.176" rx="4.901" transform="translate(619.6 2567)"/><rect class="c" width="26.165" height="26.176" rx="4.901" transform="translate(381.063 2567)"/><rect class="c" width="26.165" height="26.176" rx="4.901" transform="translate(321.387 2567)"/><rect class="c" width="26.165" height="26.176" rx="4.901" transform="translate(261.709 2567)"/><rect class="c" width="26.165" height="26.176" rx="4.901" transform="translate(202.031 2567)"/><rect class="c" width="26.165" height="26.176" rx="4.901" transform="translate(142.355 2567)"/><rect class="c" width="26.165" height="26.176" rx="4.901" transform="translate(82.678 2567)"/><rect class="c" width="26.165" height="26.176" rx="4.901" transform="translate(23 2567)"/><rect class="c" width="26.166" height="26.176" rx="4.901" transform="translate(1215.908 2567)"/><rect class="c" width="26.166" height="26.176" rx="4.901" transform="translate(1275.535 2567)"/><rect class="c" width="26.166" height="26.176" rx="4.901" transform="translate(1335.164 2567)"/><rect class="c" width="26.166" height="26.176" rx="4.901" transform="translate(1394.793 2567)"/><rect class="c" width="26.166" height="26.176" rx="4.901" transform="translate(1454.42 2567)"/><rect class="c" width="26.166" height="26.176" rx="4.901" transform="translate(1514.049 2567)"/><rect class="c" width="26.166" height="26.176" rx="4.901" transform="translate(1573.678 2567)"/><rect class="c" width="26.166" height="26.176" rx="4.901" transform="translate(1633.305 2567)"/><rect class="c" width="26.166" height="26.176" rx="4.901" transform="translate(1692.934 2567)"/><rect class="c" width="26.166" height="26.176" rx="4.901" transform="translate(1752.563 2567)"/><rect class="c" width="26.166" height="26.176" rx="4.901" transform="translate(1812.191 2567)"/><rect class="c" width="26.166" height="26.176" rx="4.901" transform="translate(1871.818 2567)"/></g><g transform="translate(-23 -2507)"><rect class="c" width="26.165" height="26.176" rx="4.901" transform="translate(440.74 2567)"/><rect class="c" width="26.165" height="26.176" rx="4.901" transform="translate(500.367 2567)"/><rect class="c" width="26.166" height="26.176" rx="4.901" transform="translate(679.254 2567)"/><rect class="c" width="26.165" height="26.176" rx="4.901" transform="translate(738.881 2567)"/><rect class="c" width="26.165" height="26.176" rx="4.901" transform="translate(798.51 2567)"/><rect class="c" width="26.165" height="26.176" rx="4.901" transform="translate(858.139 2567)"/><rect class="c" width="26.165" height="26.176" rx="4.901" transform="translate(917.766 2567)"/><rect class="c" width="26.165" height="26.176" rx="4.901" transform="translate(977.395 2567)"/><rect class="c" width="26.165" height="26.176" rx="4.901" transform="translate(1037.023 2567)"/><rect class="c" width="26.166" height="26.176" rx="4.901" transform="translate(1096.65 2567)"/><rect class="c" width="26.166" height="26.176" rx="4.901" transform="translate(1156.279 2567)"/><rect class="c" width="26.165" height="26.176" rx="4.901" transform="translate(559.973 2567)"/><rect class="c" width="26.165" height="26.176" rx="4.901" transform="translate(619.6 2567)"/><rect class="c" width="26.165" height="26.176" rx="4.901" transform="translate(381.063 2567)"/><rect class="c" width="26.165" height="26.176" rx="4.901" transform="translate(321.387 2567)"/><rect class="c" width="26.165" height="26.176" rx="4.901" transform="translate(261.709 2567)"/><rect class="c" width="26.165" height="26.176" rx="4.901" transform="translate(202.031 2567)"/><rect class="c" width="26.165" height="26.176" rx="4.901" transform="translate(142.355 2567)"/><rect class="c" width="26.165" height="26.176" rx="4.901" transform="translate(82.678 2567)"/><rect class="c" width="26.165" height="26.176" rx="4.901" transform="translate(23 2567)"/><rect class="c" width="26.166" height="26.176" rx="4.901" transform="translate(1215.908 2567)"/><rect class="c" width="26.166" height="26.176" rx="4.901" transform="translate(1275.535 2567)"/><rect class="c" width="26.166" height="26.176" rx="4.901" transform="translate(1335.164 2567)"/><rect class="c" width="26.166" height="26.176" rx="4.901" transform="translate(1394.793 2567)"/><rect class="c" width="26.166" height="26.176" rx="4.901" transform="translate(1454.42 2567)"/><rect class="c" width="26.166" height="26.176" rx="4.901" transform="translate(1514.049 2567)"/><rect class="c" width="26.166" height="26.176" rx="4.901" transform="translate(1573.678 2567)"/><rect class="c" width="26.166" height="26.176" rx="4.901" transform="translate(1633.305 2567)"/><rect class="c" width="26.166" height="26.176" rx="4.901" transform="translate(1692.934 2567)"/><rect class="c" width="26.166" height="26.176" rx="4.901" transform="translate(1752.563 2567)"/><rect class="c" width="26.166" height="26.176" rx="4.901" transform="translate(1812.191 2567)"/><rect class="c" width="26.166" height="26.176" rx="4.901" transform="translate(1871.818 2567)"/></g><g transform="translate(-23 -2447)"><rect class="c" width="26.165" height="26.176" rx="4.901" transform="translate(440.74 2567)"/><rect class="c" width="26.165" height="26.176" rx="4.901" transform="translate(500.367 2567)"/><rect class="c" width="26.166" height="26.176" rx="4.901" transform="translate(679.254 2567)"/><rect class="c" width="26.165" height="26.176" rx="4.901" transform="translate(738.881 2567)"/><rect class="c" width="26.165" height="26.176" rx="4.901" transform="translate(798.51 2567)"/><rect class="c" width="26.165" height="26.176" rx="4.901" transform="translate(858.139 2567)"/><rect class="c" width="26.165" height="26.176" rx="4.901" transform="translate(917.766 2567)"/><rect class="c" width="26.165" height="26.176" rx="4.901" transform="translate(977.395 2567)"/><rect class="c" width="26.165" height="26.176" rx="4.901" transform="translate(1037.023 2567)"/><rect class="c" width="26.166" height="26.176" rx="4.901" transform="translate(1096.65 2567)"/><rect class="c" width="26.166" height="26.176" rx="4.901" transform="translate(1156.279 2567)"/><rect class="c" width="26.165" height="26.176" rx="4.901" transform="translate(559.973 2567)"/><rect class="c" width="26.165" height="26.176" rx="4.901" transform="translate(619.6 2567)"/><rect class="c" width="26.165" height="26.176" rx="4.901" transform="translate(381.063 2567)"/><rect class="c" width="26.165" height="26.176" rx="4.901" transform="translate(321.387 2567)"/><rect class="c" width="26.165" height="26.176" rx="4.901" transform="translate(261.709 2567)"/><rect class="c" width="26.165" height="26.176" rx="4.901" transform="translate(202.031 2567)"/><rect class="c" width="26.165" height="26.176" rx="4.901" transform="translate(142.355 2567)"/><rect class="c" width="26.165" height="26.176" rx="4.901" transform="translate(82.678 2567)"/><rect class="c" width="26.165" height="26.176" rx="4.901" transform="translate(23 2567)"/><rect class="c" width="26.166" height="26.176" rx="4.901" transform="translate(1215.908 2567)"/><rect class="c" width="26.166" height="26.176" rx="4.901" transform="translate(1275.535 2567)"/><rect class="c" width="26.166" height="26.176" rx="4.901" transform="translate(1335.164 2567)"/><rect class="c" width="26.166" height="26.176" rx="4.901" transform="translate(1394.793 2567)"/><rect class="c" width="26.166" height="26.176" rx="4.901" transform="translate(1454.42 2567)"/><rect class="c" width="26.166" height="26.176" rx="4.901" transform="translate(1514.049 2567)"/><rect class="c" width="26.166" height="26.176" rx="4.901" transform="translate(1573.678 2567)"/><rect class="c" width="26.166" height="26.176" rx="4.901" transform="translate(1633.305 2567)"/><rect class="c" width="26.166" height="26.176" rx="4.901" transform="translate(1692.934 2567)"/><rect class="c" width="26.166" height="26.176" rx="4.901" transform="translate(1752.563 2567)"/><rect class="c" width="26.166" height="26.176" rx="4.901" transform="translate(1812.191 2567)"/><rect class="c" width="26.166" height="26.176" rx="4.901" transform="translate(1871.818 2567)"/></g><g transform="translate(-23 -2387)"><rect class="c" width="26.165" height="26.176" rx="4.901" transform="translate(440.74 2567)"/><rect class="c" width="26.165" height="26.176" rx="4.901" transform="translate(500.367 2567)"/><rect class="c" width="26.166" height="26.176" rx="4.901" transform="translate(679.254 2567)"/><rect class="c" width="26.165" height="26.176" rx="4.901" transform="translate(738.881 2567)"/><rect class="c" width="26.165" height="26.176" rx="4.901" transform="translate(798.51 2567)"/><rect class="c" width="26.165" height="26.176" rx="4.901" transform="translate(858.139 2567)"/><rect class="c" width="26.165" height="26.176" rx="4.901" transform="translate(917.766 2567)"/><rect class="c" width="26.165" height="26.176" rx="4.901" transform="translate(977.395 2567)"/><rect class="c" width="26.165" height="26.176" rx="4.901" transform="translate(1037.023 2567)"/><rect class="c" width="26.166" height="26.176" rx="4.901" transform="translate(1096.65 2567)"/><rect class="c" width="26.166" height="26.176" rx="4.901" transform="translate(1156.279 2567)"/><rect class="c" width="26.165" height="26.176" rx="4.901" transform="translate(559.973 2567)"/><rect class="c" width="26.165" height="26.176" rx="4.901" transform="translate(619.6 2567)"/><rect class="c" width="26.165" height="26.176" rx="4.901" transform="translate(381.063 2567)"/><rect class="c" width="26.165" height="26.176" rx="4.901" transform="translate(321.387 2567)"/><rect class="c" width="26.165" height="26.176" rx="4.901" transform="translate(261.709 2567)"/><rect class="c" width="26.165" height="26.176" rx="4.901" transform="translate(202.031 2567)"/><rect class="c" width="26.165" height="26.176" rx="4.901" transform="translate(142.355 2567)"/><rect class="c" width="26.165" height="26.176" rx="4.901" transform="translate(82.678 2567)"/><rect class="c" width="26.165" height="26.176" rx="4.901" transform="translate(23 2567)"/><rect class="c" width="26.166" height="26.176" rx="4.901" transform="translate(1215.908 2567)"/><rect class="c" width="26.166" height="26.176" rx="4.901" transform="translate(1275.535 2567)"/><rect class="c" width="26.166" height="26.176" rx="4.901" transform="translate(1335.164 2567)"/><rect class="c" width="26.166" height="26.176" rx="4.901" transform="translate(1394.793 2567)"/><rect class="c" width="26.166" height="26.176" rx="4.901" transform="translate(1454.42 2567)"/><rect class="c" width="26.166" height="26.176" rx="4.901" transform="translate(1514.049 2567)"/><rect class="c" width="26.166" height="26.176" rx="4.901" transform="translate(1573.678 2567)"/><rect class="c" width="26.166" height="26.176" rx="4.901" transform="translate(1633.305 2567)"/><rect class="c" width="26.166" height="26.176" rx="4.901" transform="translate(1692.934 2567)"/><rect class="c" width="26.166" height="26.176" rx="4.901" transform="translate(1752.563 2567)"/><rect class="c" width="26.166" height="26.176" rx="4.901" transform="translate(1812.191 2567)"/><rect class="c" width="26.166" height="26.176" rx="4.901" transform="translate(1871.818 2567)"/></g><g transform="translate(-23 -2327)"><rect class="c" width="26.165" height="26.176" rx="4.901" transform="translate(440.74 2567)"/><rect class="c" width="26.165" height="26.176" rx="4.901" transform="translate(500.367 2567)"/><rect class="c" width="26.166" height="26.176" rx="4.901" transform="translate(679.254 2567)"/><rect class="c" width="26.165" height="26.176" rx="4.901" transform="translate(738.881 2567)"/><rect class="c" width="26.165" height="26.176" rx="4.901" transform="translate(798.51 2567)"/><rect class="c" width="26.165" height="26.176" rx="4.901" transform="translate(858.139 2567)"/><rect class="c" width="26.165" height="26.176" rx="4.901" transform="translate(917.766 2567)"/><rect class="c" width="26.165" height="26.176" rx="4.901" transform="translate(977.395 2567)"/><rect class="c" width="26.165" height="26.176" rx="4.901" transform="translate(1037.023 2567)"/><rect class="c" width="26.166" height="26.176" rx="4.901" transform="translate(1096.65 2567)"/><rect class="c" width="26.166" height="26.176" rx="4.901" transform="translate(1156.279 2567)"/><rect class="c" width="26.165" height="26.176" rx="4.901" transform="translate(559.973 2567)"/><rect class="c" width="26.165" height="26.176" rx="4.901" transform="translate(619.6 2567)"/><rect class="c" width="26.165" height="26.176" rx="4.901" transform="translate(381.063 2567)"/><rect class="c" width="26.165" height="26.176" rx="4.901" transform="translate(321.387 2567)"/><rect class="c" width="26.165" height="26.176" rx="4.901" transform="translate(261.709 2567)"/><rect class="c" width="26.165" height="26.176" rx="4.901" transform="translate(202.031 2567)"/><rect class="c" width="26.165" height="26.176" rx="4.901" transform="translate(142.355 2567)"/><rect class="c" width="26.165" height="26.176" rx="4.901" transform="translate(82.678 2567)"/><rect class="c" width="26.165" height="26.176" rx="4.901" transform="translate(23 2567)"/><rect class="c" width="26.166" height="26.176" rx="4.901" transform="translate(1215.908 2567)"/><rect class="c" width="26.166" height="26.176" rx="4.901" transform="translate(1275.535 2567)"/><rect class="c" width="26.166" height="26.176" rx="4.901" transform="translate(1335.164 2567)"/><rect class="c" width="26.166" height="26.176" rx="4.901" transform="translate(1394.793 2567)"/><rect class="c" width="26.166" height="26.176" rx="4.901" transform="translate(1454.42 2567)"/><rect class="c" width="26.166" height="26.176" rx="4.901" transform="translate(1514.049 2567)"/><rect class="c" width="26.166" height="26.176" rx="4.901" transform="translate(1573.678 2567)"/><rect class="c" width="26.166" height="26.176" rx="4.901" transform="translate(1633.305 2567)"/><rect class="c" width="26.166" height="26.176" rx="4.901" transform="translate(1692.934 2567)"/><rect class="c" width="26.166" height="26.176" rx="4.901" transform="translate(1752.563 2567)"/><rect class="c" width="26.166" height="26.176" rx="4.901" transform="translate(1812.191 2567)"/><rect class="c" width="26.166" height="26.176" rx="4.901" transform="translate(1871.818 2567)"/></g><g transform="translate(-23 -2267)"><rect class="c" width="26.165" height="26.176" rx="4.901" transform="translate(440.74 2567)"/><rect class="c" width="26.165" height="26.176" rx="4.901" transform="translate(500.367 2567)"/><rect class="c" width="26.166" height="26.176" rx="4.901" transform="translate(679.254 2567)"/><rect class="c" width="26.165" height="26.176" rx="4.901" transform="translate(738.881 2567)"/><rect class="c" width="26.165" height="26.176" rx="4.901" transform="translate(798.51 2567)"/><rect class="c" width="26.165" height="26.176" rx="4.901" transform="translate(858.139 2567)"/><rect class="c" width="26.165" height="26.176" rx="4.901" transform="translate(917.766 2567)"/><rect class="c" width="26.165" height="26.176" rx="4.901" transform="translate(977.395 2567)"/><rect class="c" width="26.165" height="26.176" rx="4.901" transform="translate(1037.023 2567)"/><rect class="c" width="26.166" height="26.176" rx="4.901" transform="translate(1096.65 2567)"/><rect class="c" width="26.166" height="26.176" rx="4.901" transform="translate(1156.279 2567)"/><rect class="c" width="26.165" height="26.176" rx="4.901" transform="translate(559.973 2567)"/><rect class="c" width="26.165" height="26.176" rx="4.901" transform="translate(619.6 2567)"/><rect class="c" width="26.165" height="26.176" rx="4.901" transform="translate(381.063 2567)"/><rect class="c" width="26.165" height="26.176" rx="4.901" transform="translate(321.387 2567)"/><rect class="c" width="26.165" height="26.176" rx="4.901" transform="translate(261.709 2567)"/><rect class="c" width="26.165" height="26.176" rx="4.901" transform="translate(202.031 2567)"/><rect class="c" width="26.165" height="26.176" rx="4.901" transform="translate(142.355 2567)"/><rect class="c" width="26.165" height="26.176" rx="4.901" transform="translate(82.678 2567)"/><rect class="c" width="26.165" height="26.176" rx="4.901" transform="translate(23 2567)"/><rect class="c" width="26.166" height="26.176" rx="4.901" transform="translate(1215.908 2567)"/><rect class="c" width="26.166" height="26.176" rx="4.901" transform="translate(1275.535 2567)"/><rect class="c" width="26.166" height="26.176" rx="4.901" transform="translate(1335.164 2567)"/><rect class="c" width="26.166" height="26.176" rx="4.901" transform="translate(1394.793 2567)"/><rect class="c" width="26.166" height="26.176" rx="4.901" transform="translate(1454.42 2567)"/><rect class="c" width="26.166" height="26.176" rx="4.901" transform="translate(1514.049 2567)"/><rect class="c" width="26.166" height="26.176" rx="4.901" transform="translate(1573.678 2567)"/><rect class="c" width="26.166" height="26.176" rx="4.901" transform="translate(1633.305 2567)"/><rect class="c" width="26.166" height="26.176" rx="4.901" transform="translate(1692.934 2567)"/><rect class="c" width="26.166" height="26.176" rx="4.901" transform="translate(1752.563 2567)"/><rect class="c" width="26.166" height="26.176" rx="4.901" transform="translate(1812.191 2567)"/><rect class="c" width="26.166" height="26.176" rx="4.901" transform="translate(1871.818 2567)"/></g><g transform="translate(-23 -2207)"><rect class="c" width="26.165" height="26.176" rx="4.901" transform="translate(440.74 2567)"/><rect class="c" width="26.165" height="26.176" rx="4.901" transform="translate(500.367 2567)"/><rect class="c" width="26.166" height="26.176" rx="4.901" transform="translate(679.254 2567)"/><rect class="c" width="26.165" height="26.176" rx="4.901" transform="translate(738.881 2567)"/><rect class="c" width="26.165" height="26.176" rx="4.901" transform="translate(798.51 2567)"/><rect class="c" width="26.165" height="26.176" rx="4.901" transform="translate(858.139 2567)"/><rect class="c" width="26.165" height="26.176" rx="4.901" transform="translate(917.766 2567)"/><rect class="c" width="26.165" height="26.176" rx="4.901" transform="translate(977.395 2567)"/><rect class="c" width="26.165" height="26.176" rx="4.901" transform="translate(1037.023 2567)"/><rect class="c" width="26.166" height="26.176" rx="4.901" transform="translate(1096.65 2567)"/><rect class="c" width="26.166" height="26.176" rx="4.901" transform="translate(1156.279 2567)"/><rect class="c" width="26.165" height="26.176" rx="4.901" transform="translate(559.973 2567)"/><rect class="c" width="26.165" height="26.176" rx="4.901" transform="translate(619.6 2567)"/><rect class="c" width="26.165" height="26.176" rx="4.901" transform="translate(381.063 2567)"/><rect class="c" width="26.165" height="26.176" rx="4.901" transform="translate(321.387 2567)"/><rect class="c" width="26.165" height="26.176" rx="4.901" transform="translate(261.709 2567)"/><rect class="c" width="26.165" height="26.176" rx="4.901" transform="translate(202.031 2567)"/><rect class="c" width="26.165" height="26.176" rx="4.901" transform="translate(142.355 2567)"/><rect class="c" width="26.165" height="26.176" rx="4.901" transform="translate(82.678 2567)"/><rect class="c" width="26.165" height="26.176" rx="4.901" transform="translate(23 2567)"/><rect class="c" width="26.166" height="26.176" rx="4.901" transform="translate(1215.908 2567)"/><rect class="c" width="26.166" height="26.176" rx="4.901" transform="translate(1275.535 2567)"/><rect class="c" width="26.166" height="26.176" rx="4.901" transform="translate(1335.164 2567)"/><rect class="c" width="26.166" height="26.176" rx="4.901" transform="translate(1394.793 2567)"/><rect class="c" width="26.166" height="26.176" rx="4.901" transform="translate(1454.42 2567)"/><rect class="c" width="26.166" height="26.176" rx="4.901" transform="translate(1514.049 2567)"/><rect class="c" width="26.166" height="26.176" rx="4.901" transform="translate(1573.678 2567)"/><rect class="c" width="26.166" height="26.176" rx="4.901" transform="translate(1633.305 2567)"/><rect class="c" width="26.166" height="26.176" rx="4.901" transform="translate(1692.934 2567)"/><rect class="c" width="26.166" height="26.176" rx="4.901" transform="translate(1752.563 2567)"/><rect class="c" width="26.166" height="26.176" rx="4.901" transform="translate(1812.191 2567)"/><rect class="c" width="26.166" height="26.176" rx="4.901" transform="translate(1871.818 2567)"/></g><g transform="translate(-23 -2147)"><rect class="c" width="26.165" height="26.176" rx="4.901" transform="translate(440.74 2567)"/><rect class="c" width="26.165" height="26.176" rx="4.901" transform="translate(500.367 2567)"/><rect class="c" width="26.166" height="26.176" rx="4.901" transform="translate(679.254 2567)"/><rect class="c" width="26.165" height="26.176" rx="4.901" transform="translate(738.881 2567)"/><rect class="c" width="26.165" height="26.176" rx="4.901" transform="translate(798.51 2567)"/><rect class="c" width="26.165" height="26.176" rx="4.901" transform="translate(858.139 2567)"/><rect class="c" width="26.165" height="26.176" rx="4.901" transform="translate(917.766 2567)"/><rect class="c" width="26.165" height="26.176" rx="4.901" transform="translate(977.395 2567)"/><rect class="c" width="26.165" height="26.176" rx="4.901" transform="translate(1037.023 2567)"/><rect class="c" width="26.166" height="26.176" rx="4.901" transform="translate(1096.65 2567)"/><rect class="c" width="26.166" height="26.176" rx="4.901" transform="translate(1156.279 2567)"/><rect class="c" width="26.165" height="26.176" rx="4.901" transform="translate(559.973 2567)"/><rect class="c" width="26.165" height="26.176" rx="4.901" transform="translate(619.6 2567)"/><rect class="c" width="26.165" height="26.176" rx="4.901" transform="translate(381.063 2567)"/><rect class="c" width="26.165" height="26.176" rx="4.901" transform="translate(321.387 2567)"/><rect class="c" width="26.165" height="26.176" rx="4.901" transform="translate(261.709 2567)"/><rect class="c" width="26.165" height="26.176" rx="4.901" transform="translate(202.031 2567)"/><rect class="c" width="26.165" height="26.176" rx="4.901" transform="translate(142.355 2567)"/><rect class="c" width="26.165" height="26.176" rx="4.901" transform="translate(82.678 2567)"/><rect class="c" width="26.165" height="26.176" rx="4.901" transform="translate(23 2567)"/><rect class="c" width="26.166" height="26.176" rx="4.901" transform="translate(1215.908 2567)"/><rect class="c" width="26.166" height="26.176" rx="4.901" transform="translate(1275.535 2567)"/><rect class="c" width="26.166" height="26.176" rx="4.901" transform="translate(1335.164 2567)"/><rect class="c" width="26.166" height="26.176" rx="4.901" transform="translate(1394.793 2567)"/><rect class="c" width="26.166" height="26.176" rx="4.901" transform="translate(1454.42 2567)"/><rect class="c" width="26.166" height="26.176" rx="4.901" transform="translate(1514.049 2567)"/><rect class="c" width="26.166" height="26.176" rx="4.901" transform="translate(1573.678 2567)"/><rect class="c" width="26.166" height="26.176" rx="4.901" transform="translate(1633.305 2567)"/><rect class="c" width="26.166" height="26.176" rx="4.901" transform="translate(1692.934 2567)"/><rect class="c" width="26.166" height="26.176" rx="4.901" transform="translate(1752.563 2567)"/><rect class="c" width="26.166" height="26.176" rx="4.901" transform="translate(1812.191 2567)"/><rect class="c" width="26.166" height="26.176" rx="4.901" transform="translate(1871.818 2567)"/></g><g transform="translate(-23 -2087)"><rect class="c" width="26.165" height="26.176" rx="4.901" transform="translate(440.74 2567)"/><rect class="c" width="26.165" height="26.176" rx="4.901" transform="translate(500.367 2567)"/><rect class="c" width="26.166" height="26.176" rx="4.901" transform="translate(679.254 2567)"/><rect class="c" width="26.165" height="26.176" rx="4.901" transform="translate(738.881 2567)"/><rect class="c" width="26.165" height="26.176" rx="4.901" transform="translate(798.51 2567)"/><rect class="c" width="26.165" height="26.176" rx="4.901" transform="translate(858.139 2567)"/><rect class="c" width="26.165" height="26.176" rx="4.901" transform="translate(917.766 2567)"/><rect class="c" width="26.165" height="26.176" rx="4.901" transform="translate(977.395 2567)"/><rect class="c" width="26.165" height="26.176" rx="4.901" transform="translate(1037.023 2567)"/><rect class="c" width="26.166" height="26.176" rx="4.901" transform="translate(1096.65 2567)"/><rect class="c" width="26.166" height="26.176" rx="4.901" transform="translate(1156.279 2567)"/><rect class="c" width="26.165" height="26.176" rx="4.901" transform="translate(559.973 2567)"/><rect class="c" width="26.165" height="26.176" rx="4.901" transform="translate(619.6 2567)"/><rect class="c" width="26.165" height="26.176" rx="4.901" transform="translate(381.063 2567)"/><rect class="c" width="26.165" height="26.176" rx="4.901" transform="translate(321.387 2567)"/><rect class="c" width="26.165" height="26.176" rx="4.901" transform="translate(261.709 2567)"/><rect class="c" width="26.165" height="26.176" rx="4.901" transform="translate(202.031 2567)"/><rect class="c" width="26.165" height="26.176" rx="4.901" transform="translate(142.355 2567)"/><rect class="c" width="26.165" height="26.176" rx="4.901" transform="translate(82.678 2567)"/><rect class="c" width="26.165" height="26.176" rx="4.901" transform="translate(23 2567)"/><rect class="c" width="26.166" height="26.176" rx="4.901" transform="translate(1215.908 2567)"/><rect class="c" width="26.166" height="26.176" rx="4.901" transform="translate(1275.535 2567)"/><rect class="c" width="26.166" height="26.176" rx="4.901" transform="translate(1335.164 2567)"/><rect class="c" width="26.166" height="26.176" rx="4.901" transform="translate(1394.793 2567)"/><rect class="c" width="26.166" height="26.176" rx="4.901" transform="translate(1454.42 2567)"/><rect class="c" width="26.166" height="26.176" rx="4.901" transform="translate(1514.049 2567)"/><rect class="c" width="26.166" height="26.176" rx="4.901" transform="translate(1573.678 2567)"/><rect class="c" width="26.166" height="26.176" rx="4.901" transform="translate(1633.305 2567)"/><rect class="c" width="26.166" height="26.176" rx="4.901" transform="translate(1692.934 2567)"/><rect class="c" width="26.166" height="26.176" rx="4.901" transform="translate(1752.563 2567)"/><rect class="c" width="26.166" height="26.176" rx="4.901" transform="translate(1812.191 2567)"/><rect class="c" width="26.166" height="26.176" rx="4.901" transform="translate(1871.818 2567)"/></g><g transform="translate(-23 -2027)"><rect class="c" width="26.165" height="26.176" rx="4.901" transform="translate(440.74 2567)"/><rect class="c" width="26.165" height="26.176" rx="4.901" transform="translate(500.367 2567)"/><rect class="c" width="26.166" height="26.176" rx="4.901" transform="translate(679.254 2567)"/><rect class="c" width="26.165" height="26.176" rx="4.901" transform="translate(738.881 2567)"/><rect class="c" width="26.165" height="26.176" rx="4.901" transform="translate(798.51 2567)"/><rect class="c" width="26.165" height="26.176" rx="4.901" transform="translate(858.139 2567)"/><rect class="c" width="26.165" height="26.176" rx="4.901" transform="translate(917.766 2567)"/><rect class="c" width="26.165" height="26.176" rx="4.901" transform="translate(977.395 2567)"/><rect class="c" width="26.165" height="26.176" rx="4.901" transform="translate(1037.023 2567)"/><rect class="c" width="26.166" height="26.176" rx="4.901" transform="translate(1096.65 2567)"/><rect class="c" width="26.166" height="26.176" rx="4.901" transform="translate(1156.279 2567)"/><rect class="c" width="26.165" height="26.176" rx="4.901" transform="translate(559.973 2567)"/><rect class="c" width="26.165" height="26.176" rx="4.901" transform="translate(619.6 2567)"/><rect class="c" width="26.165" height="26.176" rx="4.901" transform="translate(381.063 2567)"/><rect class="c" width="26.165" height="26.176" rx="4.901" transform="translate(321.387 2567)"/><rect class="c" width="26.165" height="26.176" rx="4.901" transform="translate(261.709 2567)"/><rect class="c" width="26.165" height="26.176" rx="4.901" transform="translate(202.031 2567)"/><rect class="c" width="26.165" height="26.176" rx="4.901" transform="translate(142.355 2567)"/><rect class="c" width="26.165" height="26.176" rx="4.901" transform="translate(82.678 2567)"/><rect class="c" width="26.165" height="26.176" rx="4.901" transform="translate(23 2567)"/><rect class="c" width="26.166" height="26.176" rx="4.901" transform="translate(1215.908 2567)"/><rect class="c" width="26.166" height="26.176" rx="4.901" transform="translate(1275.535 2567)"/><rect class="c" width="26.166" height="26.176" rx="4.901" transform="translate(1335.164 2567)"/><rect class="c" width="26.166" height="26.176" rx="4.901" transform="translate(1394.793 2567)"/><rect class="c" width="26.166" height="26.176" rx="4.901" transform="translate(1454.42 2567)"/><rect class="c" width="26.166" height="26.176" rx="4.901" transform="translate(1514.049 2567)"/><rect class="c" width="26.166" height="26.176" rx="4.901" transform="translate(1573.678 2567)"/><rect class="c" width="26.166" height="26.176" rx="4.901" transform="translate(1633.305 2567)"/><rect class="c" width="26.166" height="26.176" rx="4.901" transform="translate(1692.934 2567)"/><rect class="c" width="26.166" height="26.176" rx="4.901" transform="translate(1752.563 2567)"/><rect class="c" width="26.166" height="26.176" rx="4.901" transform="translate(1812.191 2567)"/><rect class="c" width="26.166" height="26.176" rx="4.901" transform="translate(1871.818 2567)"/></g><g transform="translate(-23 -1967)"><rect class="c" width="26.165" height="26.176" rx="4.901" transform="translate(440.74 2567)"/><rect class="c" width="26.165" height="26.176" rx="4.901" transform="translate(500.367 2567)"/><rect class="c" width="26.166" height="26.176" rx="4.901" transform="translate(679.254 2567)"/><rect class="c" width="26.165" height="26.176" rx="4.901" transform="translate(738.881 2567)"/><rect class="c" width="26.165" height="26.176" rx="4.901" transform="translate(798.51 2567)"/><rect class="c" width="26.165" height="26.176" rx="4.901" transform="translate(858.139 2567)"/><rect class="c" width="26.165" height="26.176" rx="4.901" transform="translate(917.766 2567)"/><rect class="c" width="26.165" height="26.176" rx="4.901" transform="translate(977.395 2567)"/><rect class="c" width="26.165" height="26.176" rx="4.901" transform="translate(1037.023 2567)"/><rect class="c" width="26.166" height="26.176" rx="4.901" transform="translate(1096.65 2567)"/><rect class="c" width="26.166" height="26.176" rx="4.901" transform="translate(1156.279 2567)"/><rect class="c" width="26.165" height="26.176" rx="4.901" transform="translate(559.973 2567)"/><rect class="c" width="26.165" height="26.176" rx="4.901" transform="translate(619.6 2567)"/><rect class="c" width="26.165" height="26.176" rx="4.901" transform="translate(381.063 2567)"/><rect class="c" width="26.165" height="26.176" rx="4.901" transform="translate(321.387 2567)"/><rect class="c" width="26.165" height="26.176" rx="4.901" transform="translate(261.709 2567)"/><rect class="c" width="26.165" height="26.176" rx="4.901" transform="translate(202.031 2567)"/><rect class="c" width="26.165" height="26.176" rx="4.901" transform="translate(142.355 2567)"/><rect class="c" width="26.165" height="26.176" rx="4.901" transform="translate(82.678 2567)"/><rect class="c" width="26.165" height="26.176" rx="4.901" transform="translate(23 2567)"/><rect class="c" width="26.166" height="26.176" rx="4.901" transform="translate(1215.908 2567)"/><rect class="c" width="26.166" height="26.176" rx="4.901" transform="translate(1275.535 2567)"/><rect class="c" width="26.166" height="26.176" rx="4.901" transform="translate(1335.164 2567)"/><rect class="c" width="26.166" height="26.176" rx="4.901" transform="translate(1394.793 2567)"/><rect class="c" width="26.166" height="26.176" rx="4.901" transform="translate(1454.42 2567)"/><rect class="c" width="26.166" height="26.176" rx="4.901" transform="translate(1514.049 2567)"/><rect class="c" width="26.166" height="26.176" rx="4.901" transform="translate(1573.678 2567)"/><rect class="c" width="26.166" height="26.176" rx="4.901" transform="translate(1633.305 2567)"/><rect class="c" width="26.166" height="26.176" rx="4.901" transform="translate(1692.934 2567)"/><rect class="c" width="26.166" height="26.176" rx="4.901" transform="translate(1752.563 2567)"/><rect class="c" width="26.166" height="26.176" rx="4.901" transform="translate(1812.191 2567)"/><rect class="c" width="26.166" height="26.176" rx="4.901" transform="translate(1871.818 2567)"/></g></g><rect class="d" width="723" height="669" transform="translate(-1 410)"/></g></svg>